<svg width="1591" height="1008" viewBox="0 0 1591 1008" fill="none" xmlns="http://www.w3.org/2000/svg">
<path d="M696.124 435.199C695.144 435.042 689.815 434.886 684.251 434.886L674.142 434.846L674.338 365.021C674.651 275.76 674.886 249.546 675.435 246.686C675.944 243.904 675.474 243.042 672.457 241.083C665.639 236.733 664.699 229.21 670.498 225.253C672.3 224.038 672.574 223.959 675.161 224.116C679.51 224.391 681.548 225.762 684.055 230.033C685.192 231.953 686.681 232.737 687.856 231.992C688.209 231.796 689.541 229.602 690.834 227.133C692.127 224.665 694.047 221.413 695.105 219.924C697.652 216.319 703.765 210.324 707.722 207.502C710.661 205.386 716.774 201.703 717.361 201.703C717.479 201.703 718.498 203.506 719.556 205.739C721.672 210.049 723.553 215.692 723.553 217.612C723.553 220.002 721.123 222.941 709.094 235.127L701.414 242.846L701.335 337.592C701.296 389.668 701.257 432.691 701.257 433.201C701.218 434.063 699.18 435.708 698.279 435.591C698.083 435.552 697.104 435.395 696.124 435.199Z" fill="white"/>
<path d="M890.631 434.809C889.886 433.987 889.886 431.988 890.043 339.632C890.121 267.534 890.043 244.964 889.69 243.867C889.377 242.927 888.045 241.359 885.576 239.047C879.973 233.797 869.08 221.885 868.139 219.965L867.316 218.241L868.1 215.028C868.923 211.815 871.235 206.094 872.959 203.077C874.056 201.196 874.448 201.196 877.661 203.155C886.673 208.602 894.706 216.909 899.721 225.999C903.13 232.112 904.58 232.856 907.166 229.683C910.889 225.176 915.865 223.766 920.175 225.96C920.998 226.391 922.017 227.136 922.487 227.645C924.485 229.8 925.152 233.875 923.976 236.736C923.036 238.93 920.254 241.516 917.903 242.339C916.766 242.731 915.434 243.436 914.925 243.906L913.984 244.768V292.886C913.945 319.335 913.906 348.331 913.828 357.265C913.749 366.199 913.671 387.515 913.632 404.599L913.592 435.632H902.503C891.689 435.632 891.375 435.593 890.631 434.809Z" fill="white"/>
<path d="M919.509 435.354C919.509 435.158 919.431 422.188 919.313 406.436L919.117 377.832L927.385 369.995C931.93 365.685 936.436 361.571 937.455 360.904C939.14 359.729 947.643 356.085 950.19 355.458L951.326 355.184L951.052 381.593C950.817 407.102 950.817 408.042 951.522 409.218C952.071 410.08 953.403 410.942 956.146 412.274C958.301 413.293 960.456 414.547 960.926 414.978C963.591 417.407 964.805 421.561 965.197 429.241C965.393 433.159 965.315 434.57 964.923 435.04C964.492 435.549 961.71 435.628 941.961 435.628C929.579 435.628 919.47 435.51 919.509 435.354Z" fill="white"/>
<path d="M646.79 434.92C631.626 434.842 626.493 434.724 626.062 434.372C625.592 433.98 625.514 432.922 625.71 428.181C625.945 422.107 626.493 419.364 628.1 416.7C629.197 414.741 630.843 413.565 634.996 411.645C636.72 410.862 638.405 409.764 639.032 409.02L640.129 407.727L639.855 380.533C639.698 365.565 639.698 353.34 639.816 353.34C640.207 353.34 649.141 358.042 650.395 358.943C651.022 359.374 653.216 361.999 655.332 364.86C657.527 367.759 661.367 372.148 664.149 374.969L669.086 379.906V402.006C669.086 414.114 668.968 426.574 668.812 429.631C668.577 434.96 668.537 435.155 667.754 435.116C667.283 435.077 657.879 434.999 646.79 434.92Z" fill="white"/>
<path d="M792.398 431.008C789.067 428.814 788.597 424.347 791.379 421.565C793.809 419.096 797.766 419.135 800.274 421.682C802.86 424.229 802.312 428.774 799.216 430.812C797.492 431.988 794.005 432.066 792.398 431.008Z" fill="white"/>
<path d="M794.668 410.398C794.316 409.536 793.728 405.383 793.258 400.25C791.455 379.952 789.77 362.085 789.574 360.987C789.261 359.107 787.419 357.226 781.111 352.367C772.882 345.98 770.649 342.924 770.296 337.477C769.865 331.443 772.725 327.72 782.247 321.804L783.971 320.785L778.721 315.613C770.296 307.306 765.947 300.723 763.87 293.2C762.694 288.968 762.694 283.325 763.87 279.603C765.359 274.901 769.199 270.003 773.94 266.711C775.743 265.497 781.973 262.323 783.501 261.853C786.048 261.108 788.595 260.011 788.595 259.658C788.595 259.462 788.007 258.404 787.302 257.268C785.656 254.682 784.05 250.685 783.697 248.217C782.952 242.966 786.636 237.794 794.433 233.17C797.646 231.25 798.626 231.093 799.214 232.426C799.88 233.836 799.41 235.012 797.176 237.794C794.668 240.889 794.002 242.378 794.002 245.082C793.963 249.275 797.842 254.682 802.466 256.955C804.268 257.817 807.599 258.13 809.245 257.582C810.303 257.229 811.713 255.035 811.713 253.781C811.713 252.527 812.732 251.077 813.633 251.077C814.378 251.077 815.475 252.135 816.611 253.937C817.591 255.466 817.983 257.934 817.512 259.658C816.533 263.185 814.456 264.439 806.149 266.515C803.289 267.26 798.704 268.553 796.001 269.454C787.537 272.197 781.307 276.703 778.721 281.915C777.623 284.187 777.545 284.579 777.702 287.596C777.859 290.261 778.133 291.397 779.269 293.866C781.15 297.862 782.521 299.782 786.479 303.975C789.927 307.58 796.628 312.987 797.646 312.987C798.352 312.987 803.798 309.813 806.423 307.893C807.521 307.11 809.401 305.386 810.616 304.053C814.613 299.743 815.397 295.276 813.046 290.496C811.361 287.087 807.286 281.954 803.289 278.271C800.663 275.88 799.566 274.587 799.566 273.96C799.566 271.492 801.721 269.65 804.072 270.12C804.817 270.238 807.168 271.374 809.245 272.628C822.646 280.582 829.699 289.36 829.738 298.137C829.738 301.742 829.032 304.21 827.112 307.423C824.448 311.773 819.785 316.044 813.202 320.08C811.4 321.216 809.872 322.156 809.793 322.235C809.715 322.313 810.851 323.645 812.34 325.252C816.023 329.17 816.964 331.208 816.964 334.813C816.925 337.203 816.729 338.065 815.632 340.259C813.633 344.334 810.224 347.273 808.383 346.529C807.873 346.333 807.834 345.745 808.03 342.649L808.304 339.005L807.011 337.516C805.561 335.871 797.019 329.836 796.118 329.836C795.491 329.836 787.106 334.852 785.303 336.262C784.481 336.968 784.285 337.399 784.481 338.026C784.598 338.457 787.223 341.16 790.28 344.021C797.96 351.231 798.979 352.289 800.585 354.718L801.996 356.834L801.565 361.262C801.33 363.691 800.428 374.153 799.566 384.498C797.529 409.027 797.176 411.417 795.922 411.652C795.452 411.73 795.06 411.339 794.668 410.398Z" fill="white"/>
<path d="M665.44 366.978C663.873 364.744 661.718 361.375 660.66 359.415C657.603 353.655 657.76 353.812 648.317 349.032L639.814 344.761L639.579 338.57C639.422 335.161 639.305 322.308 639.305 309.966V287.553L640.128 287.082C640.598 286.847 641.46 286.495 642.008 286.338C642.557 286.142 644.751 285.397 646.906 284.614C652.235 282.655 652.706 282.694 656.193 285.554C657.799 286.847 661.326 289.708 664.069 291.941L669.084 295.938V333.476C669.084 356.477 668.928 370.975 668.732 370.975C668.497 370.975 667.047 369.172 665.44 366.978Z" fill="white"/>
<path d="M919.352 367.959C919.273 367.763 919.234 367.293 919.273 366.862C919.312 366.431 919.352 358.986 919.391 350.366L919.469 334.614L925.19 333.203C932.713 331.323 936.044 329.99 937.846 328.227C939.688 326.346 941.647 323.055 942.274 320.743C942.705 319.019 942.666 318.784 941.961 317.804C941.334 316.942 940.746 316.668 939.453 316.589C937.298 316.433 936.279 317.334 934.516 321.096C933.771 322.663 932.792 324.152 932.321 324.387C931.342 324.936 920.449 328.658 919.861 328.658C919.587 328.658 919.469 323.799 919.469 314.238V299.858L923.505 296.841C925.699 295.195 929.853 291.904 932.752 289.513C935.848 286.967 938.395 285.164 938.865 285.164C939.766 285.164 946.819 288.495 949.523 290.18L951.208 291.238V318.745V346.291L949.68 347.074C947.29 348.289 943.45 349.621 940.236 350.405C936.396 351.306 935.652 351.737 933.301 354.206C920.762 367.528 919.704 368.586 919.352 367.959Z" fill="white"/>
<path d="M792.711 296.37C790.948 295.547 789.106 293.392 788.597 291.55C787.186 286.103 793.024 281.205 798.275 283.4C800.156 284.183 801.057 285.006 801.958 286.809C803.447 289.747 802.35 293.744 799.568 295.586C797.726 296.801 794.435 297.192 792.711 296.37Z" fill="white"/>
<path d="M919.35 278.227C918.997 261.456 918.997 252.287 919.311 250.68C919.507 249.701 920.291 248.839 922.563 247.036C928.833 241.982 930.361 239.866 931.458 234.576C932.516 229.521 930.988 224.506 927.03 220.117C924.091 216.826 919.664 215.376 915.079 216.199C912.219 216.747 910.73 217.453 907.399 219.882C906.067 220.862 904.735 221.684 904.46 221.684C904.186 221.684 902.579 219.804 900.855 217.492C897.211 212.515 891.059 206.05 887.141 203.072C884.868 201.348 882.008 199.506 877.188 196.685C876.718 196.411 877.11 195.627 879.03 192.806C882.635 187.595 886.005 183.794 890.197 180.306C895.056 176.231 899.406 173.802 904.931 172.039C908.653 170.863 909.711 170.667 911.592 170.863C914.962 171.255 918.371 172.274 919.389 173.214C919.899 173.684 921.819 176.27 923.66 178.974C928.441 185.949 934.867 194.608 935.298 194.648C935.494 194.648 936.787 194.217 938.158 193.668C941.567 192.297 948.189 190.651 949.757 190.808L951.011 190.925L951.128 237.28C951.167 262.749 951.089 283.595 950.971 283.595C950.854 283.595 949.012 282.693 946.857 281.596C941.998 279.089 940.627 277.6 937.531 271.252C936.238 268.587 934.867 266.158 934.514 265.805C933.77 265.022 931.262 264.982 930.243 265.688C929.224 266.471 929.616 267.882 932.202 273.289C933.378 275.758 934.358 277.991 934.358 278.266C934.358 279.128 920.839 291.431 919.86 291.431C919.703 291.431 919.468 285.476 919.35 278.227Z" fill="white"/>
<path d="M662.934 282.38C658.31 278.148 656.938 276.659 656.938 275.915C656.938 275.014 660.465 267.373 661.288 266.589C661.836 266.001 661.719 264.121 661.053 263.454C660.191 262.632 657.84 262.24 656.703 262.788C656.194 263.023 655.567 263.69 655.332 264.277C654.587 266.315 651.061 273.094 649.885 274.778C648.671 276.542 646.633 277.717 642.519 279.089C638.796 280.303 639.149 285.084 639.423 234.733C639.58 206.756 639.815 190.063 640.05 189.828C640.599 189.28 648.475 191.2 652.628 192.884C655.763 194.138 655.998 194.178 656.625 193.551C656.978 193.198 660.152 188.731 663.717 183.676C671.672 172.274 672.103 171.804 675.159 171.098C678.96 170.197 683.27 170.432 686.914 171.686C693.85 174.115 699.531 177.995 705.722 184.538C709.719 188.731 714.891 196.019 714.303 196.568C714.108 196.764 712.266 197.822 710.228 198.958C703.019 202.916 696.788 208.401 691.224 215.611C689.774 217.57 688.09 219.608 687.58 220.196L686.601 221.254L684.406 219.529C683.192 218.589 681.154 217.296 679.861 216.708C677.784 215.729 677.04 215.611 673.787 215.611C670.339 215.611 669.83 215.729 667.44 216.904C664.305 218.432 662.542 220.352 660.543 224.388C659.25 227.053 659.094 227.64 659.094 230.462C659.094 235.399 660.387 238.886 663.404 241.864C664.697 243.157 666.578 244.803 667.636 245.469L669.477 246.762V267.334C669.477 278.658 669.36 287.905 669.203 287.905C669.007 287.905 666.186 285.397 662.934 282.38Z" fill="white"/>
<path d="M794.083 220.746C792.672 219.962 791.497 217.611 790.948 214.633C790.439 211.812 790.556 206.326 791.693 185.088C792.32 173.608 792.476 172.236 793.143 171.492C794.201 170.277 795.376 169.963 796.943 170.394C799.49 171.1 799.216 169.454 801.136 196.765C802.351 214.476 802.233 216.984 799.804 219.609C798.824 220.706 798.197 221.02 796.826 221.137C795.729 221.255 794.671 221.098 794.083 220.746Z" fill="white"/>
<path d="M830.56 200.839C828.131 199.546 826.995 197.665 823.86 190.142C820.216 181.365 817.826 175.565 816.18 171.725C815.435 169.962 814.848 168.042 814.848 167.376C814.848 165.299 817.12 163.693 819.315 164.241C820.373 164.516 820.725 165.064 829.502 179.445C836.986 191.748 837.535 192.767 837.809 195.275C838.397 200.055 834.596 202.994 830.56 200.839Z" fill="white"/>
<path d="M753.564 200.916C750.821 200.054 749.372 196.958 750.194 193.823C750.9 191.198 752.154 188.965 758.737 178.581C768.18 163.652 768.924 162.633 770.1 162.202C772.216 161.497 774.88 162.986 774.88 164.827C774.88 166.199 761.832 195.508 760.226 197.781C758.306 200.445 755.837 201.621 753.564 200.916Z" fill="white"/>
<path d="M853.013 189.245C852.19 188.618 850.858 187.325 850.074 186.384C848.037 183.877 829.777 156.761 829.346 155.625C828.21 152.647 831.776 149.943 834.362 151.785C835.341 152.451 854.62 173.767 857.95 177.803C860.419 180.859 861.438 182.975 861.477 184.974C861.477 189.558 856.775 191.948 853.013 189.245Z" fill="white"/>
<path d="M935.377 187.323C934.711 186.539 932.948 184.188 931.42 182.15C922.368 169.964 920.37 165.223 921.977 159.659C922.721 157.151 923.818 156.054 927.462 154.212C928.794 153.546 932.164 151.744 934.946 150.176C942.509 145.945 945.957 145.083 948.23 146.885C950.933 149.001 951.325 151.861 951.129 169.572C951.012 182.581 950.933 183.992 950.306 184.972C949.915 185.599 949.131 186.265 948.543 186.461C947.211 186.97 938.473 188.772 937.337 188.772C936.866 188.772 936.043 188.185 935.377 187.323Z" fill="white"/>
<path d="M647.337 186.659C644.555 185.993 642.008 185.287 641.695 185.091C641.421 184.896 640.911 184.112 640.559 183.328C639.971 182.114 639.892 179.88 639.775 167.929C639.618 150.453 640.01 147.906 643.223 145.751C644.986 144.575 646.828 144.771 650.981 146.613C656.193 148.886 666.773 155.155 667.948 156.644C669.594 158.682 670.221 162.757 669.359 165.656C668.222 169.457 663.677 176.706 657.133 185.013C654.39 188.54 654.704 188.5 647.337 186.659Z" fill="white"/>
<path d="M732.72 178.233C731.936 177.762 731.231 176.822 730.8 175.725C729.154 171.336 731.27 169.024 751.175 153.664C758.973 147.63 758.62 147.826 760.384 148.375C761.481 148.688 762.029 149.158 762.539 150.177C763.127 151.509 763.127 151.666 762.46 152.92C762.069 153.625 759.639 156.525 757.053 159.307C754.467 162.089 749.882 167.065 746.904 170.357C743.887 173.609 740.635 176.861 739.655 177.527C737.383 179.095 734.522 179.369 732.72 178.233Z" fill="white"/>
<path d="M861.829 160.285C860.653 159.501 855.873 155.779 851.21 152.017C842.864 145.316 842.668 145.16 842.668 143.71C842.668 141.947 844.079 140.458 845.724 140.458C847.017 140.458 846.665 140.262 858.42 146.805C865.277 150.606 868.098 152.409 869.078 153.545C871.272 156.131 871.272 158.6 869.039 160.559C867.04 162.322 864.611 162.244 861.829 160.285Z" fill="white"/>
<path d="M790.753 155.034C787.58 154.603 782.29 152.918 779.39 151.468C757.212 140.262 751.139 111.579 766.891 92.3399C771.436 86.7758 779.155 81.7995 786.247 79.8795C804.389 74.9423 822.806 83.3276 831.426 100.451C834.914 107.426 836.011 118.044 834.012 125.881C833.072 129.564 830.721 134.815 828.566 138.106C825.98 142.064 820.572 147.432 817.085 149.509C809.131 154.289 799.57 156.288 790.753 155.034ZM804.193 140.026C808.308 138.655 811.011 136.892 814.224 133.483C817.516 129.995 819.279 126.9 820.337 122.707C821.826 116.869 821.278 111.697 818.574 106.289C815.439 100.059 811.247 96.2191 804.938 93.8289C801.96 92.6925 801.372 92.6142 796.631 92.6142C791.968 92.6142 791.302 92.6925 788.598 93.7113C778.45 97.5513 772.141 106.328 772.141 116.595C772.141 123.256 774.218 128.781 778.45 133.287C782.251 137.362 786.992 140.066 791.851 140.967C795.22 141.555 800.941 141.124 804.193 140.026Z" fill="white"/>
<path d="M792.356 133.875C789.574 133.209 785.538 130.78 783.422 128.468C776.957 121.415 777.388 110.874 784.402 104.017C786.636 101.862 789.614 100.373 793.375 99.5502C796.157 98.9624 796.627 98.9624 799.566 99.5502C801.29 99.8637 803.563 100.569 804.582 101.039C807.325 102.371 810.929 106.172 812.536 109.424C813.829 112.05 813.868 112.324 813.868 116.673C813.868 120.945 813.79 121.336 812.614 123.844C811.125 126.979 808.069 130.349 805.248 131.955C801.565 134.071 796.431 134.816 792.356 133.875Z" fill="white"/>
<path d="M726.097 154.332C723.707 153.274 722.531 150.022 723.707 147.71C724.49 146.182 726.449 145.045 731.974 142.812C734.364 141.832 738.714 140.069 741.692 138.854C745.767 137.17 747.413 136.66 748.236 136.856C750.469 137.365 751.37 140.5 749.725 142.028C748.667 143.008 734.169 152.294 731.818 153.548C729.976 154.489 727.311 154.841 726.097 154.332Z" fill="white"/>
<path d="M886.163 132.741C870.058 131.213 848.037 128 846.627 126.942C844.55 125.375 844.824 121.926 847.097 120.829C848.233 120.32 849.722 120.281 858.774 120.594C864.455 120.79 874.251 121.064 880.481 121.182C894.117 121.495 896.547 121.887 898.819 124.121C899.995 125.335 900.269 125.884 900.269 127.099C900.269 130.547 897.448 132.702 892.667 132.937C891.139 133.015 888.201 132.937 886.163 132.741Z" fill="white"/>
<path d="M695.416 132.192C689.538 130.272 689.578 123.767 695.455 121.965C696.905 121.534 700.392 121.22 707.485 120.946C724.686 120.28 745.258 119.927 746.512 120.28C749.725 121.142 749.921 125.961 746.786 127.176C746.198 127.411 743.494 127.881 740.791 128.195C738.087 128.508 732.641 129.253 728.644 129.762C711.207 132.152 698.198 133.093 695.416 132.192Z" fill="white"/>
<path d="M731.585 107.23C727.274 106.172 720.3 104.488 716.107 103.508C703.333 100.491 700.943 99.4721 699.611 96.5725C698.67 94.4565 698.67 93.6729 699.65 92.0663C701.374 89.2843 705.527 88.9708 711.993 91.1259C718.027 93.1243 742.125 102.215 743.065 102.803C745.769 104.566 743.967 109.307 740.675 109.19C739.97 109.15 735.895 108.288 731.585 107.23Z" fill="white"/>
<path d="M849.369 108.289C848.155 106.996 847.881 104.958 848.821 103.822C849.33 103.156 853.405 101.549 863.828 97.8269C886.751 89.6375 887.691 89.4024 891.1 91.1265C895.019 93.1248 894.627 98.2579 890.434 100.413C888.24 101.589 854.385 109.229 851.525 109.229C850.702 109.229 849.957 108.916 849.369 108.289Z" fill="white"/>
<path d="M748.039 91.7147C747.256 91.558 718.377 68.9098 709.6 61.5824C704.624 57.4289 700.98 53.7065 700.431 52.2175C699.843 50.6893 699.961 47.9857 700.666 47.0061C702.664 44.1457 707.014 44.224 710.776 47.2412C714.185 50.0232 738.635 72.7106 747.53 81.4094C752.193 85.9547 752.545 86.4249 752.545 87.7572C752.545 90.1474 750.234 92.1457 748.039 91.7147Z" fill="white"/>
<path d="M840.005 90.7362C838.712 89.3256 838.36 88.0325 838.947 86.7003C839.457 85.4856 850.076 74.906 862.849 62.7982C866.964 58.919 871.627 54.4912 873.233 52.9239C877.387 48.9663 880.796 46.3018 882.481 45.7533C883.264 45.479 884.714 45.3614 885.694 45.479C888.162 45.7533 890.082 47.7516 890.082 50.0635C890.082 54.0602 888.241 55.8235 864.025 75.337C842.121 92.9305 843.924 91.5982 842.317 91.5982C841.298 91.5982 840.593 91.324 840.005 90.7362Z" fill="white"/>
<path d="M831.148 76.6668C830.599 76.0007 830.129 75.0995 830.129 74.6293C830.129 74.1591 831.579 71.5729 833.381 68.8692C835.144 66.1656 837.691 62.2472 839.024 60.1705C842.393 55.0374 844.392 53.7051 847.487 54.7239C849.368 55.3509 850.152 56.3696 850.387 58.4072C850.7 61.1109 849.564 62.7566 841.766 70.6717C835.497 77.0586 834.478 77.8815 833.381 77.8815C832.519 77.8815 831.892 77.568 831.148 76.6668Z" fill="white"/>
<path d="M757.719 75.0588C751.802 69.6514 746.199 64.009 745.846 63.1078C745.337 61.6971 745.415 59.1894 746.042 57.9355C747.061 56.0155 749.882 55.3494 752.155 56.5249C753.644 57.3086 755.093 59.1502 760.54 67.2612C765.399 74.5102 765.477 74.7845 763.792 76.6261C762.303 78.2327 760.736 77.8017 757.719 75.0588Z" fill="white"/>
<path d="M815.241 72.5927C814.653 71.9657 814.301 71.1429 814.301 70.32C814.34 69.6539 815.711 65.2653 817.357 60.6416C819.042 56.018 821.158 50.1012 822.098 47.5151C824.567 40.6579 825.86 37.5232 826.84 35.9167C830.366 30.2351 837.654 32.1942 837.027 38.6204C836.831 41.0106 835.029 44.8114 826.409 61.1902C819.747 73.8857 819.943 73.5723 817.827 73.5723C816.534 73.5723 815.946 73.3372 815.241 72.5927Z" fill="white"/>
<path d="M774.608 70.3579C773.942 69.6134 761.756 48.5717 756.74 39.4811C754.742 35.837 753.958 32.859 754.468 30.939C755.251 28.1178 757.916 26.5505 760.737 27.3341C763.637 28.1178 765.321 30.4688 768.613 38.5015C769.436 40.4607 772.179 46.9652 774.686 52.9995C781.191 68.5162 780.877 67.615 780.329 68.9473C779.702 70.4754 778.526 71.2199 776.841 71.2199C775.862 71.2199 775.157 70.9456 774.608 70.3579Z" fill="white"/>
<path d="M796.748 66.3228C794.867 65.2648 794.906 65.8134 794.084 34.7799C793.378 9.54554 793.417 6.25411 794.397 4.13819C796.552 -0.720599 801.058 -1.42591 803.762 2.68839L804.859 4.37329L804.82 13.7774C804.781 22.7113 804.154 36.1121 802.9 55.9391L802.312 64.7554L801.137 65.8526C799.804 67.0281 798.394 67.1848 796.748 66.3228Z" fill="white"/>
<path d="M349.654 668.602H437.428L450.159 606.962H447.144C444.24 616.789 440.108 625.387 434.748 632.645C429.388 639.904 422.911 645.487 415.54 649.395C408.058 653.304 399.46 655.202 389.856 655.202H350.324V575.807H388.516C396.333 576.031 402.475 578.599 407.053 583.512C411.632 588.426 413.865 594.567 413.865 601.937V604.617H417.216V533.598H413.865V535.943C413.865 543.313 411.52 549.454 407.053 554.479C402.475 559.504 396.221 562.184 388.516 562.296H350.324V481.003H398.566C408.393 481.226 415.875 484.13 421.124 489.713C426.373 495.296 428.941 503.001 428.941 512.828V515.843H432.291V462.578C429.611 463.471 424.698 464.588 417.551 465.705C410.404 466.933 403.591 467.603 397.114 467.603H279.523V470.953H283.879C288.792 470.953 292.924 472.628 296.386 475.978C299.848 479.328 301.635 483.571 301.858 488.708V647.497C301.635 652.41 299.736 656.653 296.386 660.003C292.924 663.465 288.681 665.252 283.879 665.252H279.523V668.602H349.542H349.654Z" fill="white"/>
<path d="M502.87 661.568C517.945 668.491 535.925 671.952 556.696 672.176C568.756 672.176 579.365 670.836 588.522 667.933C597.679 665.141 605.385 661.344 611.75 656.654C618.115 651.964 623.029 646.604 626.491 640.574L623.364 598.365H621.131C618.897 613.663 615.212 625.834 610.075 634.991C604.938 644.148 598.014 650.736 589.416 654.868C580.705 658.999 569.873 661.009 556.584 661.009C544.3 660.674 533.803 657.324 525.092 650.959C516.382 644.594 509.682 635.773 505.103 624.383C500.524 612.993 498.291 599.593 498.291 584.183C498.291 568.773 500.524 555.597 505.103 544.207C509.682 532.817 516.494 523.995 525.427 517.63C534.473 511.265 545.752 508.139 559.376 508.139C573 508.139 585.06 511.6 595.111 518.412C605.161 525.335 612.532 537.283 617.222 554.368H619.456L619.232 509.925C611.973 506.24 602.928 503.114 591.984 500.769C581.04 498.312 569.315 497.195 556.696 497.195C535.701 497.195 517.61 500.657 502.535 507.692C487.459 514.727 475.956 524.665 467.916 537.618C459.876 550.572 455.855 566.093 455.855 584.406C455.855 602.72 459.876 618.8 468.028 631.753C476.068 644.706 487.682 654.644 502.758 661.456L502.87 661.568Z" fill="white"/>
<path d="M656.975 668.603H714.821V665.811H711.694C707.562 665.811 704.101 664.359 701.085 661.456C698.07 658.553 696.507 655.091 696.395 650.959V590.66H770.099V650.959C769.876 655.091 768.424 658.553 765.52 661.456C762.617 664.359 759.044 665.811 754.8 665.811H751.673V668.603H828.504V665.811H825.377C821.133 665.811 817.56 664.359 814.656 661.456C811.753 658.553 810.189 655.091 810.078 650.959V518.635H810.301C810.301 514.392 811.753 510.819 814.768 508.027C817.783 505.235 821.357 503.784 825.712 503.784H828.839V500.992H751.785V503.784H754.912C759.155 503.784 762.729 505.124 765.632 508.027C768.536 510.819 770.099 514.392 770.211 518.635V579.493H696.507V518.635C696.73 514.392 698.294 510.819 701.197 508.027C704.212 505.235 707.674 503.784 711.806 503.784H714.933V500.992H637.879V503.784H641.229C645.361 503.784 648.823 505.124 651.838 508.027C654.853 510.819 656.305 514.392 656.305 518.635V650.959C656.305 655.091 654.853 658.553 651.838 661.456C648.823 664.359 645.361 665.811 641.229 665.811H637.879V668.603H657.087H656.975Z" fill="white"/>
<path d="M863.236 648.837C871.946 656.43 882.443 662.237 894.504 666.257C906.565 670.277 919.965 672.287 934.706 672.287C949.447 672.287 963.071 670.277 975.131 666.257C987.192 662.237 997.689 656.43 1006.4 648.837C1015.11 641.244 1021.92 632.087 1026.61 621.367C1031.3 610.647 1033.76 598.587 1033.76 585.187C1033.76 571.787 1031.41 559.393 1026.61 548.561C1021.92 537.729 1015.11 528.573 1006.4 520.868C997.689 513.275 987.192 507.468 975.131 503.448C963.071 499.428 949.558 497.418 934.706 497.418C919.854 497.418 906.565 499.428 894.504 503.448C882.443 507.468 871.946 513.275 863.236 520.868C854.525 528.461 847.825 537.729 843.135 548.561C838.444 559.393 836.211 571.564 836.211 585.187C836.211 598.811 838.556 610.647 843.135 621.367C847.825 632.087 854.525 641.244 863.236 648.837ZM885.905 544.206C890.595 532.816 897.072 523.883 905.448 517.629C913.823 511.376 923.539 508.25 934.706 508.25C945.873 508.25 955.924 511.376 964.411 517.629C972.898 523.883 979.375 532.704 983.954 544.206C988.532 555.596 990.766 569.331 990.766 585.076C990.766 600.821 988.532 614.221 983.954 625.499C979.375 636.889 972.898 645.599 964.411 651.852C955.924 658.105 945.985 661.232 934.706 661.232C923.427 661.232 913.712 658.105 905.448 651.852C897.072 645.599 890.595 636.777 885.905 625.499C881.215 614.109 878.982 600.709 878.982 585.076C878.982 569.442 881.327 555.596 885.905 544.206Z" fill="white"/>
<path d="M1061.23 668.603H1172.01L1182.62 617.237H1180.16C1177.71 625.388 1174.36 632.535 1169.89 638.565C1165.42 644.595 1160.06 649.285 1153.81 652.523C1147.55 655.762 1140.41 657.437 1132.48 657.437H1099.53V591.33H1131.36C1137.84 591.554 1143.09 593.675 1146.88 597.807C1150.68 601.939 1152.58 606.964 1152.58 613.217V615.45H1155.37V556.267H1152.58V558.277C1152.58 564.419 1150.68 569.556 1146.88 573.799C1143.09 578.042 1137.95 580.164 1131.36 580.387H1099.53V512.494H1139.74C1147.89 512.718 1154.25 515.063 1158.61 519.753C1162.96 524.442 1165.2 530.807 1165.2 538.959V541.416H1167.99V496.973C1165.76 497.754 1161.62 498.648 1155.71 499.653C1149.79 500.658 1144.09 501.216 1138.73 501.216H1040.68V504.008H1044.26C1048.39 504.008 1051.85 505.348 1054.75 508.251C1057.66 511.043 1059.22 514.616 1059.33 518.859V651.183C1059.11 655.315 1057.66 658.777 1054.75 661.68C1051.85 664.583 1048.39 666.035 1044.26 666.035H1040.68V668.826H1061.34L1061.23 668.603Z" fill="white"/>
<path d="M1205.62 664.918C1210.54 667.151 1216.46 668.938 1223.38 670.278C1230.3 671.618 1237.67 672.288 1245.71 672.288C1258.78 672.288 1270.06 670.278 1279.66 666.258C1289.27 662.238 1296.75 656.431 1302.22 648.838C1307.69 641.245 1310.71 632.2 1311.27 621.815C1311.82 611.765 1309.93 603.167 1305.68 596.132C1301.44 589.097 1295.52 583.625 1288.04 579.94L1244.26 552.917C1240.69 550.907 1237.56 548.785 1234.66 546.775C1231.75 544.765 1229.52 542.309 1227.96 539.629C1226.39 536.949 1225.72 533.934 1226.17 530.584C1226.51 524.107 1229.52 518.859 1234.99 514.95C1240.46 511.042 1247.72 509.144 1256.66 509.144C1265.59 509.144 1276.42 511.6 1282.34 516.737C1288.26 521.762 1291.28 528.574 1291.28 537.06H1293.73L1297.31 503.002C1297.31 503.002 1297.31 503.002 1297.19 503.002V500.211C1297.31 500.211 1282.01 500.211 1282.01 500.211C1279.89 499.987 1277.65 499.764 1275.31 499.541C1270.06 499.094 1264.81 498.647 1259.56 498.312C1254.2 497.977 1249.73 497.754 1246.05 497.754C1236.78 497.754 1228.4 499.429 1221.26 502.779C1214.11 506.129 1208.19 510.93 1203.84 517.295C1199.48 523.66 1196.8 531.254 1195.91 540.187C1194.79 549.679 1196.35 558.388 1200.49 566.428C1204.73 574.468 1211.43 580.833 1220.7 585.635L1260.34 610.76C1267.82 614.668 1273.19 618.576 1276.42 622.596C1279.66 626.616 1281.34 631.083 1281.34 636.108C1281.34 641.133 1278.66 648.615 1273.3 653.751C1267.94 658.776 1259.78 661.344 1248.95 661.344C1238.12 661.344 1230.64 659.223 1223.49 655.091C1216.46 650.848 1211.1 645.265 1207.41 638.23C1203.84 631.195 1202.27 623.49 1202.83 615.003H1200.6C1198.36 618.576 1196.47 622.931 1195.01 628.291C1193.56 633.651 1192.67 638.9 1192.56 644.148C1192.33 649.508 1193 653.975 1194.57 657.659C1197.14 660.451 1200.93 663.019 1205.85 665.253L1205.62 664.918Z" fill="white"/>
<path d="M680.964 725.774C677.502 722.759 673.259 720.415 668.457 718.851C663.655 717.288 658.183 716.395 652.264 716.395C646.345 716.395 640.985 717.176 636.183 718.851C631.381 720.415 627.138 722.759 623.676 725.774C620.214 728.789 617.534 732.474 615.636 736.829C613.737 741.184 612.844 745.986 612.844 751.458C612.844 756.929 613.737 761.619 615.636 765.863C617.534 770.106 620.214 773.791 623.676 776.917C627.138 779.932 631.381 782.277 636.183 783.841C640.985 785.404 646.345 786.186 652.264 786.186C658.183 786.186 663.655 785.404 668.457 783.841C673.259 782.277 677.502 779.932 680.964 776.917C684.426 773.902 687.106 770.218 689.004 765.863C690.903 761.619 691.796 756.818 691.796 751.458C691.796 746.098 690.903 741.184 689.004 736.829C687.106 732.474 684.426 728.789 680.964 725.774ZM672.03 767.649C670.243 772.227 667.563 775.689 664.213 778.146C660.863 780.602 656.843 781.942 652.264 781.942C647.686 781.942 643.889 780.714 640.538 778.146C637.188 775.689 634.62 772.116 632.721 767.649C630.823 763.071 629.93 757.711 629.93 751.458C629.93 745.204 630.823 739.621 632.721 735.043C634.62 730.464 637.188 726.891 640.538 724.434C643.889 721.978 647.797 720.749 652.264 720.749C656.731 720.749 660.751 721.978 664.213 724.434C667.563 726.891 670.243 730.464 672.03 735.043C673.817 739.621 674.71 745.093 674.71 751.458C674.71 757.823 673.817 763.071 672.03 767.649Z" fill="white"/>
<path d="M744.841 734.038V716.172C744.283 716.395 743.278 716.619 741.938 716.954C740.598 717.177 739.146 717.4 737.471 717.624C735.907 717.847 734.344 717.847 733.004 717.847H693.695V718.964H695.147C696.822 718.964 698.162 719.522 699.391 720.639C700.619 721.755 701.177 723.207 701.177 724.882V777.811C701.177 779.486 700.619 780.826 699.391 782.055C698.162 783.171 696.822 783.73 695.147 783.73H693.695V784.846H724.74V783.73C724.74 783.73 724.294 783.73 723.4 783.73C721.725 783.73 720.273 783.171 719.045 782.055C717.928 780.938 717.258 779.486 717.258 777.811V753.915H729.989C732.669 753.915 734.791 754.808 736.243 756.483C737.806 758.158 738.588 760.168 738.588 762.625V763.518H739.704V739.845H738.588V740.627C738.588 743.083 737.806 745.093 736.243 746.768C734.679 748.443 732.669 749.337 729.989 749.337H717.258V722.202H733.339C736.689 722.202 739.258 723.318 741.044 725.217C742.831 727.115 743.725 729.683 743.725 732.81V733.927H744.953L744.841 734.038Z" fill="white"/>
<path d="M823.458 722.2C826.696 722.2 829.153 723.205 831.051 725.104C832.838 727.002 833.731 729.458 833.62 732.697V733.702H834.848V716.059C834.29 716.282 833.396 716.505 832.056 716.729C830.716 716.952 829.265 717.175 827.589 717.399C825.914 717.622 824.463 717.622 823.011 717.622H781.804C780.464 717.622 779.012 717.622 777.337 717.399C775.773 717.175 774.322 716.952 772.982 716.729C771.642 716.505 770.748 716.282 770.078 716.059V733.702H771.306V732.697C771.306 729.458 772.2 727.002 773.987 725.104C775.773 723.205 778.23 722.312 781.58 722.2H794.423V777.81C794.423 779.485 793.753 780.825 792.524 782.053C791.296 783.281 789.956 783.728 788.281 783.728H787.164V784.845H817.986V783.728H816.757C815.082 783.728 813.63 783.17 812.402 782.053C811.174 780.936 810.615 779.485 810.615 777.81V722.2H823.569H823.458Z" fill="white"/>
<path d="M905.201 724.883C905.201 723.208 905.759 721.756 906.988 720.639C908.216 719.523 909.668 718.964 911.343 718.964H912.571V717.848H881.75V718.964H882.978C884.653 718.964 886.105 719.523 887.222 720.639C888.338 721.756 889.009 723.208 889.12 724.883V749.226H859.639V724.883C859.639 723.208 860.309 721.756 861.537 720.639C862.765 719.523 864.106 718.964 865.781 718.964H867.009V717.848H836.188V718.964H837.528C839.203 718.964 840.543 719.523 841.771 720.639C843 721.756 843.558 723.208 843.558 724.883V777.812C843.558 779.487 843 780.827 841.771 782.056C840.543 783.172 839.203 783.731 837.528 783.731H836.188V784.847H867.009V783.731H865.781C864.106 783.731 862.765 783.172 861.537 782.056C860.309 780.939 859.75 779.487 859.639 777.812V753.692H889.12V777.812C889.12 779.487 888.45 780.827 887.222 782.056C885.993 783.284 884.653 783.731 882.978 783.731H881.75V784.847H912.46V783.731H911.231C909.556 783.731 908.105 783.172 906.876 782.056C905.759 780.939 905.089 779.487 905.089 777.812V724.883H905.201Z" fill="white"/>
<path d="M920.612 782.053C919.495 783.17 918.043 783.728 916.368 783.728H914.916V784.845H967.514L971.758 764.298H970.753C969.748 767.537 968.407 770.44 966.621 772.785C964.834 775.242 962.712 777.028 960.144 778.368C957.687 779.708 954.783 780.378 951.545 780.378H938.368V753.913H951.098C953.667 753.913 955.788 754.807 957.24 756.482C958.804 758.157 959.474 760.167 959.474 762.623V763.517H960.59V739.843H959.474V740.625C959.474 743.082 958.692 745.092 957.24 746.767C955.677 748.442 953.667 749.335 951.098 749.335H938.368V722.2H954.448C957.687 722.2 960.255 723.205 962.042 725.104C963.829 727.002 964.611 729.57 964.611 732.808V733.813H965.727V716.059C964.834 716.394 963.159 716.729 960.814 717.175C958.469 717.622 956.124 717.734 954.002 717.734H914.805V718.85H916.256C917.932 718.85 919.272 719.409 920.5 720.525C921.617 721.642 922.287 723.094 922.287 724.769V777.698C922.287 779.373 921.617 780.713 920.5 781.941L920.612 782.053Z" fill="white"/>
<path d="M577.778 746.209L361.691 753.244L577.778 760.279L580.904 763.294L590.955 753.244L580.904 743.082L577.778 746.209Z" fill="white"/>
<path d="M1009.95 763.294L1013.08 760.279L1229.16 753.244L1013.08 746.209L1009.95 743.082L999.898 753.244L1009.95 763.294Z" fill="white"/>
<path d="M114.018 829.177C109.886 829.624 105.977 829.847 102.292 829.847H0V832.75H3.79686C8.04041 832.75 11.7256 834.202 14.8524 837.105C17.9793 840.009 19.5427 843.694 19.5427 848.16V985.733C19.5427 989.976 17.9793 993.661 14.8524 996.676C11.7256 999.691 8.04041 1001.14 3.79686 1001.14H0V1004.05H80.7392L81.0742 1001.14H77.2773C72.8104 1001.14 69.1252 999.691 66.1101 996.676C63.0949 993.661 61.5315 990.088 61.3082 985.733V923.647H94.3632C101.287 923.87 106.759 926.103 110.779 930.346C114.799 934.59 116.698 939.95 116.698 946.315V948.66H119.601V887.132H116.698V889.142C116.698 895.507 114.688 900.867 110.779 905.222C106.759 909.577 101.399 911.81 94.3632 912.033H61.3082V841.46H103.074C111.784 841.684 118.373 844.252 122.951 849.165C127.53 854.079 129.763 860.779 129.763 869.042V871.945H133.002V825.492C131.438 826.051 128.982 826.721 125.408 827.391C121.946 828.061 118.149 828.619 113.906 829.177H114.018Z" fill="white"/>
<path d="M213.295 837.106C216.533 834.203 220.442 832.751 225.02 832.751H228.259L228.594 829.848H146.18V832.751H149.977C154.443 832.751 158.352 834.203 161.59 837.106C164.829 840.009 166.504 843.694 166.504 848.161V985.733C166.504 989.977 164.829 993.662 161.59 996.677C158.352 999.692 154.443 1001.14 149.977 1001.14H146.18V1004.05H228.594V1001.14H225.132C220.442 1001.14 216.533 999.692 213.406 996.677C210.168 993.662 208.493 990.088 208.381 985.733V848.161C208.605 843.694 210.28 840.009 213.406 837.106H213.295Z" fill="white"/>
<path d="M410.841 993.438C407.938 990.647 404.588 986.627 400.679 981.378C397.441 976.688 394.202 972.222 391.187 967.867C388.172 963.512 385.715 959.603 383.817 956.253C381.918 952.903 380.578 950.447 379.796 948.884C376.893 944.417 372.873 939.727 367.736 934.702C362.599 929.677 357.239 926.327 351.655 924.54C361.147 922.977 368.853 919.85 374.771 914.937C380.69 910.135 385.045 904.329 387.837 897.629C390.629 890.929 392.08 884.229 392.08 877.417C392.08 870.606 390.294 860.667 386.72 854.638C383.147 848.496 378.345 843.694 372.314 840.121C366.284 836.548 359.584 833.979 351.99 832.304C344.396 830.629 336.691 829.848 328.762 829.848H239.312V832.751H243.109C247.13 832.751 250.703 834.203 253.718 836.994C256.175 839.228 257.627 842.019 258.185 845.369V988.19C257.627 991.428 256.063 994.22 253.718 996.677C250.703 999.691 247.13 1001.14 242.774 1001.14H239.312V1004.05H319.158V1001.14H316.255C312.346 1001.14 308.773 999.803 305.311 997.123C301.961 994.443 300.174 990.647 300.174 985.845V841.908C301.737 842.131 303.859 842.131 306.763 842.019C309.778 842.019 313.128 842.019 316.813 842.131C319.382 842.131 322.285 842.578 325.635 843.471C328.985 844.364 332.336 845.928 335.686 848.161C338.924 850.394 341.716 853.633 343.95 857.987C346.183 862.342 347.523 868.149 347.858 875.296C348.081 877.976 347.97 880.432 347.746 882.554C347.411 884.676 347.076 886.351 346.741 887.467C345.178 895.619 342.721 901.761 339.483 905.892C336.244 910.024 332.559 912.815 328.539 914.267C324.519 915.719 320.61 916.5 316.478 916.5H309.219V919.069C311.9 919.069 314.915 920.52 318.042 923.312C321.28 926.104 324.072 930.57 326.64 936.824C327.199 939.169 328.204 942.072 329.655 945.534C331.107 948.995 332.782 952.568 334.792 956.253C336.691 959.938 338.701 963.512 340.599 967.197C342.498 970.77 344.396 973.785 346.071 976.353C350.538 983.5 355.452 989.195 360.7 993.327C366.061 997.458 372.314 1000.36 379.573 1001.92C386.832 1003.49 395.654 1004.27 406.151 1004.27H430.496V1001.37C426.475 1001.37 422.902 1000.81 419.775 999.58C416.648 998.463 413.633 996.453 410.73 993.662L410.841 993.438Z" fill="white"/>
<path d="M523.52 911.699L477.958 883.559C474.273 881.437 470.922 879.315 467.907 877.194C464.892 875.072 462.547 872.615 460.984 869.824C459.309 867.032 458.75 863.906 459.085 860.332C459.42 853.521 462.547 848.161 468.242 844.029C473.938 840.009 481.42 837.887 490.688 837.887C499.957 837.887 511.236 840.456 517.378 845.704C523.52 850.952 526.647 857.987 526.647 866.921H529.215L533.012 831.522C533.012 831.522 533.012 831.522 532.901 831.522V828.619C533.012 828.619 517.155 828.619 517.155 828.619C514.921 828.396 512.576 828.061 510.119 827.949C504.648 827.502 499.176 827.056 493.704 826.609C488.232 826.274 483.541 826.051 479.633 826.051C469.917 826.051 461.319 827.837 453.837 831.299C446.243 834.761 440.213 839.786 435.746 846.374C431.167 852.962 428.487 860.891 427.482 870.159C426.365 879.985 427.929 889.142 432.284 897.405C436.639 905.78 443.674 912.369 453.39 917.393L494.597 943.523C502.302 947.543 507.886 951.675 511.236 955.918C514.586 960.05 516.373 964.74 516.373 969.988C516.373 975.236 513.581 983.053 507.998 988.301C502.414 993.55 493.927 996.118 482.76 996.118C471.592 996.118 463.664 993.885 456.293 989.53C448.923 985.175 443.339 979.368 439.654 971.998C435.857 964.628 434.294 956.588 434.852 947.878H432.507C430.162 951.563 428.264 956.142 426.7 961.613C425.137 967.085 424.243 972.668 424.132 978.14C423.908 983.611 424.578 988.301 426.142 992.21C428.822 995.113 432.731 997.681 437.867 1000.03C443.004 1002.37 449.146 1004.16 456.293 1005.5C463.44 1006.84 471.146 1007.51 479.521 1007.51C493.034 1007.51 504.871 1005.39 514.81 1001.25C524.749 997.123 532.566 991.093 538.373 983.165C544.068 975.236 547.195 965.857 547.865 955.025C548.423 944.528 546.525 935.707 542.058 928.337C537.591 920.967 531.561 915.384 523.744 911.475L523.52 911.699Z" fill="white"/>
<path d="M699.74 828.841C695.497 829.288 691.477 829.623 687.791 829.623H580.697C577.236 829.623 573.439 829.4 569.195 828.841C565.063 828.395 561.266 827.725 557.916 827.055C554.566 826.385 551.998 825.715 550.211 825.156V871.051H553.449V868.483C553.449 860.108 555.683 853.631 560.261 848.718C564.84 843.916 571.317 841.348 579.916 841.124H613.306V985.732C613.083 989.975 611.519 993.66 608.504 996.675C605.489 999.69 601.804 1001.14 597.337 1001.14H594.433V1004.05H674.614V1001.14H671.376C667.132 1001.14 663.447 999.69 660.208 996.675C656.97 993.66 655.406 990.087 655.406 985.732V841.124H689.131C697.507 841.348 703.984 843.804 708.786 848.718C713.476 853.519 715.821 860.108 715.598 868.483V871.051H718.836V825.156C717.496 825.715 715.039 826.385 711.578 827.055C708.116 827.725 704.207 828.283 699.964 828.841H699.74Z" fill="white"/>
<path d="M930.23 950.668C927.661 959.155 924.088 966.636 919.509 972.889C914.819 979.143 909.347 984.056 902.758 987.406C896.281 990.756 888.911 992.543 880.535 992.543H846.252V848.27C846.475 843.804 848.039 840.119 851.165 837.215C854.292 834.312 857.977 832.86 862.221 832.86H865.683V829.957H784.944V832.86H788.406C792.649 832.86 796.334 834.312 799.461 837.215C802.588 840.119 804.151 843.804 804.375 848.27V985.843C804.151 990.086 802.588 993.771 799.573 996.786C796.558 999.801 792.984 1001.25 788.629 1001.25H784.832V1004.16H921.631L932.91 950.78H930.006L930.23 950.668Z" fill="white"/>
<path d="M999.803 837.106C1003.04 834.203 1006.95 832.751 1011.53 832.751H1014.77L1015.1 829.848H932.688V832.751H936.484C940.951 832.751 944.86 834.203 948.098 837.106C951.337 840.009 953.012 843.694 953.012 848.161V985.733C953.012 989.977 951.337 993.662 948.098 996.677C944.86 999.692 940.951 1001.14 936.484 1001.14H932.688V1004.05H1015.1V1001.14H1011.64C1006.95 1001.14 1003.04 999.692 999.914 996.677C996.676 993.662 995.001 990.088 994.889 985.733V848.161C995.112 843.694 996.787 840.009 999.914 837.106H999.803Z" fill="white"/>
<path d="M1222.03 920.743H1147.43V923.312H1151.45C1155.47 923.312 1158.71 924.317 1160.83 926.215C1163.07 928.113 1164.18 931.017 1164.18 934.925L1163.85 969.765C1162.06 975.571 1159.16 980.485 1154.8 984.393C1150.56 988.413 1145.65 991.316 1139.95 993.438C1134.37 995.448 1128.45 996.453 1122.2 996.453C1110.36 996.453 1100.31 993.215 1092.04 986.85C1083.67 980.485 1077.42 971.44 1073.17 959.827C1068.93 948.213 1066.81 934.367 1066.81 918.287C1066.81 902.207 1069.15 886.685 1073.95 874.625C1078.64 862.566 1085.68 853.297 1094.95 846.932C1104.22 840.567 1115.61 837.329 1129.23 837.329C1142.86 837.329 1147.1 838.781 1155.03 841.684C1162.96 844.587 1169.99 849.501 1176.02 856.536C1182.16 863.459 1186.74 873.174 1189.76 885.569H1192.1V839.451C1186.63 836.771 1180.04 834.426 1172.23 832.304C1164.41 830.294 1155.92 828.731 1146.99 827.614C1137.94 826.497 1129.01 826.051 1120.07 826.051C1099.97 826.051 1082.66 829.624 1068.15 836.994C1053.63 844.364 1042.35 854.637 1034.42 868.037C1026.49 881.437 1022.47 897.74 1022.47 916.612C1022.47 935.483 1026.49 951.787 1034.42 965.41C1042.35 978.921 1053.52 989.418 1067.81 996.676C1082.11 1003.93 1098.97 1007.62 1118.29 1007.84C1132.02 1007.84 1144.75 1006.06 1156.37 1002.59C1167.98 999.133 1178.03 994.778 1186.52 989.53C1195.01 984.281 1201.37 979.033 1205.39 973.561V934.925C1205.17 927.22 1209.41 923.312 1217.9 923.312H1221.7V920.743H1222.03Z" fill="white"/>
<path d="M1398.92 829.848H1338.84V832.751H1342.08C1346.55 832.751 1350.23 834.203 1353.25 837.106C1356.26 840.009 1357.83 843.694 1358.05 848.161V911.475H1281.44V848.161C1281.67 843.694 1283.23 840.009 1286.36 837.106C1289.48 834.203 1293.17 832.751 1297.41 832.751H1300.65V829.848H1220.47V832.751H1223.93C1228.17 832.751 1231.86 834.203 1234.99 837.106C1238.11 840.009 1239.68 843.694 1239.68 848.161V985.733C1239.68 989.977 1238.11 993.662 1234.99 996.677C1231.86 999.692 1228.17 1001.14 1223.93 1001.14H1220.47V1004.05H1300.65V1001.14H1297.41C1293.17 1001.14 1289.48 999.692 1286.36 996.677C1283.23 993.662 1281.67 990.088 1281.44 985.733V922.977H1358.05V985.733C1357.83 989.977 1356.26 993.662 1353.25 996.677C1350.23 999.692 1346.55 1001.14 1342.08 1001.14H1338.84V1004.05H1418.69V1001.14H1415.45C1410.98 1001.14 1407.3 999.692 1404.28 996.677C1401.27 993.662 1399.7 990.088 1399.48 985.733V848.161H1399.81C1399.81 843.694 1401.38 840.009 1404.5 837.106C1407.63 834.203 1411.43 832.751 1415.78 832.751H1419.02V829.848H1399.03H1398.92Z" fill="white"/>
<path d="M1583.29 827.055C1579.83 827.725 1575.92 828.283 1571.68 828.841C1567.43 829.288 1563.41 829.623 1559.73 829.623H1452.64C1449.17 829.623 1445.38 829.4 1441.13 828.841C1437 828.395 1433.2 827.725 1429.85 827.055C1426.5 826.385 1423.94 825.715 1422.15 825.156V871.051H1425.39V868.483C1425.39 860.108 1427.62 853.631 1432.2 848.718C1436.78 843.916 1443.25 841.348 1451.74 841.124H1485.13V985.732C1484.91 989.975 1483.34 993.66 1480.33 996.675C1477.31 999.69 1473.63 1001.14 1469.16 1001.14H1466.26V1004.05H1546.44V1001.14H1543.2C1538.96 1001.14 1535.16 999.69 1532.03 996.675C1528.8 993.66 1527.23 990.087 1527.23 985.732V841.124H1560.96C1569.33 841.348 1575.81 843.804 1580.61 848.718C1585.3 853.519 1587.65 860.108 1587.42 868.483V871.051H1590.66V825.156C1589.32 825.715 1586.87 826.385 1583.4 827.055H1583.29Z" fill="white"/>
</svg>
