<svg width="867" height="1112" viewBox="0 0 867 1112" fill="none" xmlns="http://www.w3.org/2000/svg">
<path d="M179.955 1110.66C177.455 1110.26 163.855 1109.86 149.655 1109.86L123.855 1109.76L124.355 931.561C125.155 703.761 125.755 636.861 127.155 629.561C128.455 622.461 127.255 620.261 119.555 615.261C102.155 604.161 99.7553 584.961 114.555 574.861C119.155 571.761 119.855 571.561 126.455 571.961C137.555 572.661 142.755 576.161 149.155 587.061C152.055 591.961 155.855 593.961 158.855 592.061C159.755 591.561 163.155 585.961 166.455 579.661C169.755 573.361 174.655 565.061 177.355 561.261C183.855 552.061 199.455 536.761 209.555 529.561C217.055 524.161 232.655 514.761 234.155 514.761C234.455 514.761 237.055 519.361 239.755 525.061C245.155 536.061 249.955 550.461 249.955 555.361C249.955 561.461 243.755 568.961 213.055 600.061L193.455 619.761L193.255 861.561C193.155 994.461 193.055 1104.26 193.055 1105.56C192.955 1107.76 187.755 1111.96 185.455 1111.66C184.955 1111.56 182.455 1111.16 179.955 1110.66Z" fill="white"/>
<path d="M676.355 1109.66C674.455 1107.56 674.455 1102.46 674.855 866.761C675.055 682.761 674.855 625.161 673.955 622.361C673.155 619.961 669.755 615.961 663.455 610.061C649.155 596.661 621.355 566.261 618.955 561.361L616.855 556.961L618.855 548.761C620.955 540.561 626.855 525.961 631.255 518.261C634.055 513.461 635.055 513.461 643.255 518.461C666.255 532.361 686.755 553.561 699.555 576.761C708.255 592.361 711.955 594.261 718.555 586.161C728.055 574.661 740.755 571.061 751.755 576.661C753.855 577.761 756.455 579.661 757.655 580.961C762.755 586.461 764.455 596.861 761.455 604.161C759.055 609.761 751.955 616.361 745.955 618.461C743.055 619.461 739.655 621.261 738.355 622.461L735.955 624.661V747.461C735.855 814.961 735.755 888.961 735.555 911.761C735.355 934.561 735.155 988.961 735.055 1032.56L734.955 1111.76H706.655C679.055 1111.76 678.255 1111.66 676.355 1109.66Z" fill="white"/>
<path d="M750.056 1111.06C750.056 1110.56 749.856 1077.46 749.556 1037.26L749.056 964.261L770.156 944.261C781.756 933.261 793.256 922.761 795.856 921.061C800.156 918.061 821.856 908.761 828.356 907.161L831.256 906.461L830.556 973.861C829.956 1038.96 829.956 1041.36 831.756 1044.36C833.156 1046.56 836.556 1048.76 843.556 1052.16C849.056 1054.76 854.556 1057.96 855.756 1059.06C862.556 1065.26 865.656 1075.86 866.656 1095.46C867.156 1105.46 866.956 1109.06 865.956 1110.26C864.856 1111.56 857.756 1111.76 807.356 1111.76C775.756 1111.76 749.956 1111.46 750.056 1111.06Z" fill="white"/>
<path d="M54.0556 1109.96C15.3556 1109.76 2.25556 1109.46 1.15556 1108.56C-0.0444445 1107.56 -0.244444 1104.86 0.255556 1092.76C0.855556 1077.26 2.25556 1070.26 6.35556 1063.46C9.15556 1058.46 13.3556 1055.46 23.9556 1050.56C28.3556 1048.56 32.6556 1045.76 34.2556 1043.86L37.0556 1040.56L36.3556 971.161C35.9556 932.961 35.9556 901.761 36.2556 901.761C37.2556 901.761 60.0556 913.761 63.2556 916.061C64.8556 917.161 70.4556 923.861 75.8556 931.161C81.4556 938.561 91.2556 949.761 98.3556 956.961L110.956 969.561V1025.96C110.956 1056.86 110.656 1088.66 110.256 1096.46C109.656 1110.06 109.556 1110.56 107.556 1110.46C106.356 1110.36 82.3556 1110.16 54.0556 1109.96Z" fill="white"/>
<path d="M425.655 1099.96C417.155 1094.36 415.955 1082.96 423.055 1075.86C429.255 1069.56 439.355 1069.66 445.755 1076.16C452.355 1082.66 450.955 1094.26 443.055 1099.46C438.655 1102.46 429.755 1102.66 425.655 1099.96Z" fill="white"/>
<path d="M431.455 1047.36C430.555 1045.16 429.055 1034.56 427.855 1021.46C423.255 969.661 418.955 924.061 418.455 921.261C417.655 916.461 412.955 911.661 396.855 899.261C375.855 882.961 370.155 875.161 369.255 861.261C368.155 845.861 375.455 836.361 399.755 821.261L404.155 818.661L390.755 805.461C369.255 784.261 358.155 767.461 352.855 748.261C349.855 737.461 349.855 723.061 352.855 713.561C356.655 701.561 366.455 689.061 378.555 680.661C383.155 677.561 399.055 669.461 402.955 668.261C409.455 666.361 415.955 663.561 415.955 662.661C415.955 662.161 414.455 659.461 412.655 656.561C408.455 649.961 404.355 639.761 403.455 633.461C401.555 620.061 410.955 606.861 430.855 595.061C439.055 590.161 441.555 589.761 443.055 593.161C444.755 596.761 443.555 599.761 437.855 606.861C431.455 614.761 429.755 618.561 429.755 625.461C429.655 636.161 439.555 649.961 451.355 655.761C455.955 657.961 464.455 658.761 468.655 657.361C471.355 656.461 474.955 650.861 474.955 647.661C474.955 644.461 477.555 640.761 479.855 640.761C481.755 640.761 484.555 643.461 487.455 648.061C489.955 651.961 490.955 658.261 489.755 662.661C487.255 671.661 481.955 674.861 460.755 680.161C453.455 682.061 441.755 685.361 434.855 687.661C413.255 694.661 397.355 706.161 390.755 719.461C387.955 725.261 387.755 726.261 388.155 733.961C388.555 740.761 389.255 743.661 392.155 749.961C396.955 760.161 400.455 765.061 410.555 775.761C419.355 784.961 436.455 798.761 439.055 798.761C440.855 798.761 454.755 790.661 461.455 785.761C464.255 783.761 469.055 779.361 472.155 775.961C482.355 764.961 484.355 753.561 478.355 741.361C474.055 732.661 463.655 719.561 453.455 710.161C446.755 704.061 443.955 700.761 443.955 699.161C443.955 692.861 449.455 688.161 455.455 689.361C457.355 689.661 463.355 692.561 468.655 695.761C502.855 716.061 520.855 738.461 520.955 760.861C520.955 770.061 519.155 776.361 514.255 784.561C507.455 795.661 495.555 806.561 478.755 816.861C474.155 819.761 470.255 822.161 470.055 822.361C469.855 822.561 472.755 825.961 476.555 830.061C485.955 840.061 488.355 845.261 488.355 854.461C488.255 860.561 487.755 862.761 484.955 868.361C479.855 878.761 471.155 886.261 466.455 884.361C465.155 883.861 465.055 882.361 465.555 874.461L466.255 865.161L462.955 861.361C459.255 857.161 437.455 841.761 435.155 841.761C433.555 841.761 412.155 854.561 407.555 858.161C405.455 859.961 404.955 861.061 405.455 862.661C405.755 863.761 412.455 870.661 420.255 877.961C439.855 896.361 442.455 899.061 446.555 905.261L450.155 910.661L449.055 921.961C448.455 928.161 446.155 954.861 443.955 981.261C438.755 1043.86 437.855 1049.96 434.655 1050.56C433.455 1050.76 432.455 1049.76 431.455 1047.36Z" fill="white"/>
<path d="M101.656 936.561C97.6556 930.861 92.1556 922.261 89.4556 917.261C81.6556 902.561 82.0556 902.961 57.9556 890.761L36.2556 879.861L35.6556 864.061C35.2556 855.361 34.9556 822.561 34.9556 791.061V733.861L37.0556 732.661C38.2556 732.061 40.4556 731.161 41.8556 730.761C43.2556 730.261 48.8556 728.361 54.3556 726.361C67.9556 721.361 69.1556 721.461 78.0556 728.761C82.1556 732.061 91.1556 739.361 98.1556 745.061L110.956 755.261V851.061C110.956 909.761 110.556 946.761 110.056 946.761C109.456 946.761 105.756 942.161 101.656 936.561Z" fill="white"/>
<path d="M749.655 939.061C749.455 938.561 749.355 937.361 749.455 936.261C749.555 935.161 749.655 916.161 749.755 894.161L749.955 853.961L764.555 850.361C783.755 845.561 792.255 842.161 796.855 837.661C801.555 832.861 806.555 824.461 808.155 818.561C809.255 814.161 809.155 813.561 807.355 811.061C805.755 808.861 804.255 808.161 800.955 807.961C795.455 807.561 792.855 809.861 788.355 819.461C786.455 823.461 783.955 827.261 782.755 827.861C780.255 829.261 752.455 838.761 750.955 838.761C750.255 838.761 749.955 826.361 749.955 801.961V765.261L760.255 757.561C765.855 753.361 776.455 744.961 783.855 738.861C791.755 732.361 798.255 727.761 799.455 727.761C801.755 727.761 819.755 736.261 826.655 740.561L830.955 743.261V813.461V883.761L827.055 885.761C820.955 888.861 811.155 892.261 802.955 894.261C793.155 896.561 791.255 897.661 785.255 903.961C753.255 937.961 750.555 940.661 749.655 939.061Z" fill="white"/>
<path d="M426.456 756.361C421.956 754.261 417.256 748.761 415.956 744.061C412.356 730.161 427.256 717.661 440.656 723.261C445.456 725.261 447.756 727.361 450.056 731.961C453.856 739.461 451.056 749.661 443.956 754.361C439.256 757.461 430.856 758.461 426.456 756.361Z" fill="white"/>
<path d="M749.656 710.061C748.756 667.261 748.756 643.861 749.556 639.761C750.056 637.261 752.056 635.061 757.856 630.461C773.856 617.561 777.756 612.161 780.556 598.661C783.256 585.761 779.356 572.961 769.256 561.761C761.756 553.361 750.456 549.661 738.756 551.761C731.456 553.161 727.656 554.961 719.156 561.161C715.756 563.661 712.356 565.761 711.656 565.761C710.956 565.761 706.856 560.961 702.456 555.061C693.156 542.361 677.456 525.861 667.456 518.261C661.656 513.861 654.356 509.161 642.056 501.961C640.856 501.261 641.856 499.261 646.756 492.061C655.956 478.761 664.556 469.061 675.256 460.161C687.656 449.761 698.756 443.561 712.856 439.061C722.356 436.061 725.056 435.561 729.856 436.061C738.456 437.061 747.156 439.661 749.756 442.061C751.056 443.261 755.956 449.861 760.656 456.761C772.856 474.561 789.256 496.661 790.356 496.761C790.856 496.761 794.156 495.661 797.656 494.261C806.356 490.761 823.256 486.561 827.256 486.961L830.456 487.261L830.756 605.561C830.856 670.561 830.656 723.761 830.356 723.761C830.056 723.761 825.356 721.461 819.856 718.661C807.456 712.261 803.956 708.461 796.056 692.261C792.756 685.461 789.256 679.261 788.356 678.361C786.456 676.361 780.056 676.261 777.456 678.061C774.856 680.061 775.856 683.661 782.456 697.461C785.456 703.761 787.956 709.461 787.956 710.161C787.956 712.361 753.456 743.761 750.956 743.761C750.556 743.761 749.956 728.561 749.656 710.061Z" fill="white"/>
<path d="M95.2555 720.661C83.4555 709.861 79.9555 706.061 79.9555 704.161C79.9555 701.861 88.9555 682.361 91.0555 680.361C92.4555 678.861 92.1555 674.061 90.4555 672.361C88.2555 670.261 82.2555 669.261 79.3555 670.661C78.0555 671.261 76.4555 672.961 75.8555 674.461C73.9555 679.661 64.9555 696.961 61.9555 701.261C58.8555 705.761 53.6555 708.761 43.1555 712.261C33.6555 715.361 34.5555 727.561 35.2555 599.061C35.6555 527.661 36.2555 485.061 36.8555 484.461C38.2555 483.061 58.3555 487.961 68.9555 492.261C76.9555 495.461 77.5555 495.561 79.1555 493.961C80.0555 493.061 88.1555 481.661 97.2555 468.761C117.555 439.661 118.655 438.461 126.455 436.661C136.155 434.361 147.155 434.961 156.455 438.161C174.155 444.361 188.655 454.261 204.455 470.961C214.655 481.661 227.855 500.261 226.355 501.661C225.855 502.161 221.155 504.861 215.955 507.761C197.555 517.861 181.655 531.861 167.455 550.261C163.755 555.261 159.455 560.461 158.155 561.961L155.655 564.661L150.055 560.261C146.955 557.861 141.755 554.561 138.455 553.061C133.155 550.561 131.255 550.261 122.955 550.261C114.155 550.261 112.855 550.561 106.755 553.561C98.7555 557.461 94.2555 562.361 89.1555 572.661C85.8555 579.461 85.4555 580.961 85.4555 588.161C85.4555 600.761 88.7555 609.661 96.4555 617.261C99.7555 620.561 104.555 624.761 107.255 626.461L111.955 629.761V682.261C111.955 711.161 111.655 734.761 111.255 734.761C110.755 734.761 103.555 728.361 95.2555 720.661Z" fill="white"/>
<path d="M429.956 563.361C426.356 561.361 423.356 555.361 421.956 547.761C420.656 540.561 420.956 526.561 423.856 472.361C425.456 443.061 425.856 439.561 427.556 437.661C430.256 434.561 433.256 433.761 437.256 434.861C443.756 436.661 443.056 432.461 447.956 502.161C451.056 547.361 450.756 553.761 444.556 560.461C442.056 563.261 440.456 564.061 436.956 564.361C434.156 564.661 431.456 564.261 429.956 563.361Z" fill="white"/>
<path d="M523.055 512.561C516.855 509.261 513.955 504.461 505.955 485.261C496.655 462.861 490.555 448.061 486.355 438.261C484.455 433.761 482.955 428.861 482.955 427.161C482.955 421.861 488.755 417.761 494.355 419.161C497.055 419.861 497.955 421.261 520.355 457.961C539.455 489.361 540.855 491.961 541.555 498.361C543.055 510.561 533.355 518.061 523.055 512.561Z" fill="white"/>
<path d="M326.555 512.761C319.555 510.561 315.855 502.661 317.955 494.661C319.755 487.961 322.955 482.261 339.755 455.761C363.855 417.661 365.755 415.061 368.755 413.961C374.155 412.161 380.955 415.961 380.955 420.661C380.955 424.161 347.655 498.961 343.555 504.761C338.655 511.561 332.355 514.561 326.555 512.761Z" fill="white"/>
<path d="M580.356 482.961C578.256 481.361 574.856 478.061 572.856 475.661C567.656 469.261 521.056 400.061 519.956 397.161C517.056 389.561 526.156 382.661 532.756 387.361C535.256 389.061 584.456 443.461 592.956 453.761C599.256 461.561 601.856 466.961 601.956 472.061C601.956 483.761 589.956 489.861 580.356 482.961Z" fill="white"/>
<path d="M790.555 478.061C788.855 476.061 784.355 470.061 780.455 464.861C757.355 433.761 752.255 421.661 756.355 407.461C758.255 401.061 761.055 398.261 770.355 393.561C773.755 391.861 782.355 387.261 789.455 383.261C808.755 372.461 817.555 370.261 823.355 374.861C830.255 380.261 831.255 387.561 830.755 432.761C830.455 465.961 830.255 469.561 828.655 472.061C827.655 473.661 825.655 475.361 824.155 475.861C820.755 477.161 798.455 481.761 795.555 481.761C794.355 481.761 792.255 480.261 790.555 478.061Z" fill="white"/>
<path d="M55.4557 476.361C48.3557 474.661 41.8557 472.861 41.0557 472.361C40.3557 471.861 39.0557 469.861 38.1557 467.861C36.6557 464.761 36.4557 459.061 36.1557 428.561C35.7557 383.961 36.7557 377.461 44.9557 371.961C49.4557 368.961 54.1557 369.461 64.7557 374.161C78.0557 379.961 105.056 395.961 108.056 399.761C112.256 404.961 113.856 415.361 111.656 422.761C108.756 432.461 97.1557 450.961 80.4557 472.161C73.4557 481.161 74.2557 481.061 55.4557 476.361Z" fill="white"/>
<path d="M273.356 454.861C271.356 453.661 269.556 451.261 268.456 448.461C264.256 437.261 269.656 431.361 320.456 392.161C340.356 376.761 339.456 377.261 343.956 378.661C346.756 379.461 348.156 380.661 349.456 383.261C350.956 386.661 350.956 387.061 349.256 390.261C348.256 392.061 342.056 399.461 335.456 406.561C328.856 413.661 317.156 426.361 309.556 434.761C301.856 443.061 293.556 451.361 291.056 453.061C285.256 457.061 277.956 457.761 273.356 454.861Z" fill="white"/>
<path d="M602.855 409.061C599.855 407.061 587.655 397.561 575.755 387.961C554.455 370.861 553.955 370.461 553.955 366.761C553.955 362.261 557.555 358.461 561.755 358.461C565.055 358.461 564.155 357.961 594.155 374.661C611.655 384.361 618.855 388.961 621.355 391.861C626.955 398.461 626.955 404.761 621.255 409.761C616.155 414.261 609.955 414.061 602.855 409.061Z" fill="white"/>
<path d="M421.456 395.661C413.356 394.561 399.856 390.261 392.456 386.561C335.856 357.961 320.356 284.761 360.556 235.661C372.156 221.461 391.856 208.761 409.956 203.861C456.256 191.261 503.256 212.661 525.256 256.361C534.156 274.161 536.956 301.261 531.856 321.261C529.456 330.661 523.456 344.061 517.956 352.461C511.356 362.561 497.556 376.261 488.656 381.561C468.356 393.761 443.956 398.861 421.456 395.661ZM455.756 357.361C466.256 353.861 473.156 349.361 481.356 340.661C489.756 331.761 494.256 323.861 496.956 313.161C500.756 298.261 499.356 285.061 492.456 271.261C484.456 255.361 473.756 245.561 457.656 239.461C450.056 236.561 448.556 236.361 436.456 236.361C424.556 236.361 422.856 236.561 415.956 239.161C390.056 248.961 373.956 271.361 373.956 297.561C373.956 314.561 379.256 328.661 390.056 340.161C399.756 350.561 411.856 357.461 424.256 359.761C432.856 361.261 447.456 360.161 455.756 357.361Z" fill="white"/>
<path d="M425.556 341.661C418.456 339.961 408.156 333.761 402.756 327.861C386.256 309.861 387.356 282.961 405.256 265.461C410.956 259.961 418.556 256.161 428.156 254.061C435.256 252.561 436.456 252.561 443.956 254.061C448.356 254.861 454.156 256.661 456.756 257.861C463.756 261.261 472.956 270.961 477.056 279.261C480.356 285.961 480.456 286.661 480.456 297.761C480.456 308.661 480.256 309.661 477.256 316.061C473.456 324.061 465.656 332.661 458.456 336.761C449.056 342.161 435.956 344.061 425.556 341.661Z" fill="white"/>
<path d="M256.456 393.861C250.356 391.161 247.356 382.861 250.356 376.961C252.356 373.061 257.356 370.161 271.456 364.461C277.556 361.961 288.656 357.461 296.256 354.361C306.656 350.061 310.856 348.761 312.956 349.261C318.656 350.561 320.956 358.561 316.756 362.461C314.056 364.961 277.056 388.661 271.056 391.861C266.356 394.261 259.556 395.161 256.456 393.861Z" fill="white"/>
<path d="M664.956 338.761C623.856 334.861 567.656 326.661 564.056 323.961C558.756 319.961 559.456 311.161 565.256 308.361C568.156 307.061 571.956 306.961 595.056 307.761C609.556 308.261 634.556 308.961 650.456 309.261C685.256 310.061 691.456 311.061 697.256 316.761C700.256 319.861 700.956 321.261 700.956 324.361C700.956 333.161 693.756 338.661 681.556 339.261C677.656 339.461 670.156 339.261 664.956 338.761Z" fill="white"/>
<path d="M178.155 337.36C163.155 332.46 163.255 315.86 178.255 311.26C181.955 310.16 190.855 309.36 208.955 308.66C252.855 306.96 305.355 306.06 308.555 306.96C316.755 309.16 317.255 321.46 309.255 324.56C307.755 325.16 300.855 326.36 293.955 327.16C287.055 327.96 273.155 329.86 262.955 331.16C218.455 337.26 185.255 339.66 178.155 337.36Z" fill="white"/>
<path d="M270.456 273.661C259.456 270.961 241.656 266.661 230.956 264.161C198.356 256.461 192.256 253.861 188.856 246.461C186.456 241.061 186.456 239.061 188.956 234.961C193.356 227.861 203.956 227.061 220.456 232.561C235.856 237.661 297.356 260.861 299.756 262.361C306.656 266.861 302.056 278.961 293.656 278.661C291.856 278.561 281.456 276.361 270.456 273.661Z" fill="white"/>
<path d="M571.056 276.361C567.956 273.061 567.256 267.861 569.656 264.961C570.956 263.261 581.356 259.161 607.956 249.661C666.456 228.761 668.856 228.161 677.556 232.561C687.556 237.661 686.556 250.761 675.856 256.261C670.256 259.261 583.856 278.761 576.556 278.761C574.456 278.761 572.556 277.961 571.056 276.361Z" fill="white"/>
<path d="M312.456 234.061C310.456 233.661 236.756 175.861 214.356 157.161C201.656 146.561 192.356 137.061 190.956 133.261C189.456 129.361 189.756 122.461 191.556 119.961C196.656 112.661 207.756 112.861 217.356 120.561C226.056 127.661 288.456 185.561 311.156 207.761C323.056 219.361 323.956 220.561 323.956 223.961C323.956 230.061 318.056 235.161 312.456 234.061Z" fill="white"/>
<path d="M547.155 231.561C543.855 227.961 542.955 224.661 544.455 221.261C545.755 218.161 572.855 191.161 605.455 160.261C615.955 150.361 627.855 139.061 631.955 135.061C642.555 124.961 651.255 118.161 655.555 116.761C657.555 116.061 661.255 115.761 663.755 116.061C670.055 116.761 674.955 121.861 674.955 127.761C674.955 137.961 670.255 142.461 608.455 192.261C552.555 237.161 557.155 233.761 553.055 233.761C550.455 233.761 548.655 233.061 547.155 231.561Z" fill="white"/>
<path d="M524.555 195.661C523.155 193.961 521.955 191.661 521.955 190.461C521.955 189.261 525.655 182.661 530.255 175.761C534.755 168.861 541.255 158.861 544.655 153.561C553.255 140.461 558.355 137.061 566.255 139.661C571.055 141.261 573.055 143.861 573.655 149.061C574.455 155.961 571.555 160.161 551.655 180.361C535.655 196.661 533.055 198.761 530.255 198.761C528.055 198.761 526.455 197.961 524.555 195.661Z" fill="white"/>
<path d="M337.155 191.561C322.055 177.761 307.755 163.361 306.855 161.061C305.555 157.461 305.755 151.061 307.355 147.861C309.955 142.961 317.155 141.261 322.955 144.261C326.755 146.261 330.455 150.961 344.355 171.661C356.755 190.161 356.955 190.861 352.655 195.561C348.855 199.661 344.855 198.561 337.155 191.561Z" fill="white"/>
<path d="M483.956 185.261C482.456 183.661 481.556 181.561 481.556 179.461C481.656 177.761 485.156 166.561 489.356 154.761C493.656 142.961 499.056 127.861 501.456 121.261C507.756 103.761 511.056 95.7608 513.556 91.6608C522.556 77.1608 541.156 82.1608 539.556 98.5608C539.056 104.661 534.456 114.361 512.456 156.161C495.456 188.561 495.956 187.761 490.556 187.761C487.256 187.761 485.756 187.161 483.956 185.261Z" fill="white"/>
<path d="M380.255 179.561C378.555 177.661 347.455 123.961 334.655 100.761C329.555 91.4609 327.555 83.8609 328.855 78.9609C330.855 71.7609 337.655 67.7609 344.855 69.7609C352.255 71.7609 356.555 77.7609 364.955 98.2609C367.055 103.261 374.055 119.861 380.455 135.261C397.055 174.861 396.255 172.561 394.855 175.961C393.255 179.861 390.255 181.761 385.955 181.761C383.455 181.761 381.655 181.061 380.255 179.561Z" fill="white"/>
<path d="M436.756 169.261C431.956 166.561 432.056 167.961 429.956 88.761C428.156 24.361 428.256 15.961 430.756 10.561C436.256 -1.83903 447.756 -3.63903 454.656 6.86097L457.456 11.161L457.356 35.161C457.256 57.961 455.656 92.161 452.456 142.761L450.956 165.261L447.956 168.061C444.556 171.061 440.956 171.461 436.756 169.261Z" fill="white"/>
</svg>
