<svg width="544" height="214" viewBox="0 0 544 214" fill="none" xmlns="http://www.w3.org/2000/svg">
<path d="M115.325 132.69C132.563 132.725 133.61 132.76 136.192 133.457C143.066 135.269 147.323 139.138 148.789 144.819C150.743 152.173 146.87 160.539 139.821 164.198L137.553 165.349L139.367 167.648C140.379 168.903 143.66 173.225 146.73 177.233C154.895 188.038 161.351 196.019 163.061 197.413C163.863 198.075 165.922 199.295 167.597 200.097C170.563 201.491 170.667 201.596 170.562 202.642L170.458 203.722L166.097 203.792C163.305 203.827 160.863 203.653 159.327 203.339C152.209 201.805 143.694 196.751 138.251 190.791C136.855 189.292 132.598 183.647 128.795 178.279C122.165 168.904 121.85 168.52 120.664 168.415C119.966 168.345 119.303 168.485 119.094 168.764C118.884 169.077 118.85 172.145 119.024 177.722C119.269 184.657 119.408 186.365 119.896 187.097C120.211 187.585 121.501 188.421 122.862 189.014C125.235 190.059 125.271 190.129 125.271 191.419C125.27 192.499 125.131 192.778 124.503 192.917C124.049 193.022 117.802 193.056 110.614 193.021L97.5293 192.917L97.4248 191.628C97.3201 190.373 97.3548 190.338 99.6924 189.153C101.298 188.352 102.24 187.654 102.589 186.957C103.042 186.085 103.112 182.913 103.077 164.512C103.077 152.731 102.937 142.17 102.798 141.09C102.449 138.406 101.472 137.012 98.9951 135.827C97.1111 134.921 96.9706 134.782 97.0752 133.771L97.1807 132.69H115.325ZM128.132 140.185C126.143 139.313 122.513 138.894 120.245 139.208L118.641 139.452V150.535C118.641 156.633 118.745 161.722 118.919 161.863C119.268 162.247 124.292 161.759 126.212 161.201C130.748 159.842 133.714 155.589 133.749 150.361C133.784 145.726 131.516 141.649 128.132 140.185Z" fill="white"/>
<path d="M435.828 193.893C433.176 193.614 425.639 191.907 425.499 191.558C425.465 191.349 425.15 187.968 424.906 184.03C424.383 176.989 424.383 176.885 425.081 176.292C425.883 175.595 426.825 175.491 427.768 176.013C428.117 176.188 428.745 177.408 429.198 178.802C430.803 183.821 433.63 186.365 438.55 187.201C444.447 188.247 448.46 185.25 447.971 180.196C447.657 176.885 445.668 175.107 437.398 170.785C429.931 166.917 427.768 165 425.639 160.434C424.662 158.412 424.487 157.576 424.383 154.683C424.243 151.93 424.383 150.919 424.976 149.072C426.825 143.565 431.362 139.348 437.119 137.849C439.248 137.256 445.773 137.082 448.216 137.5C450.414 137.884 455.857 139.452 456.346 139.87C456.66 140.114 456.765 141.578 456.695 145.656L456.59 151.093L455.264 151.407C453.17 151.93 452.263 151.407 451.426 149.211C449.995 145.482 447.239 143.983 442.598 144.401C438.55 144.785 436.526 146.493 436.526 149.525C436.526 152.662 438.969 154.997 446.017 158.587C453.31 162.316 455.404 163.815 457.532 166.917C460.987 171.831 461.196 179.359 458.056 185.18C454.531 191.837 446.436 195.009 435.828 193.893Z" fill="white"/>
<path d="M164.7 192.813C164.491 192.743 164.351 192.22 164.351 191.663C164.351 190.826 164.596 190.547 166.026 189.815C169.237 188.177 169.027 189.223 169.237 174.131C169.341 166.847 169.341 157.367 169.237 153.115C169.027 144.332 168.992 144.157 165.992 142.589C164.805 141.997 164.317 141.509 164.177 140.742C164.037 140.184 164.037 139.627 164.177 139.487C164.456 139.173 203.852 138.929 205.038 139.208L205.98 139.452L205.771 145.238C205.631 148.444 205.387 151.198 205.213 151.372C205.038 151.546 204.27 151.721 203.573 151.756C202.421 151.79 202.177 151.651 201.793 150.745C200.781 148.479 200.397 147.956 199.595 147.538C198.967 147.225 196.524 147.085 191.325 147.085H183.892V162.839L189.964 162.699C195.826 162.595 196.105 162.56 196.943 161.758C197.431 161.27 198.024 160.364 198.269 159.737C198.687 158.622 198.792 158.552 200.118 158.656L201.514 158.761L201.723 162.769C201.828 164.965 201.898 168.206 201.898 169.914L201.863 173.051L200.397 173.155C198.932 173.26 198.897 173.225 198.338 171.831C198.024 171.064 197.466 170.263 197.117 170.088C196.768 169.879 193.663 169.74 190.208 169.74H183.892V185.459L192.895 185.354C203.258 185.25 203.154 185.25 205.282 181.66C206.329 179.917 206.608 179.673 207.446 179.743C208.004 179.778 208.597 179.987 208.772 180.161C209.086 180.475 207.865 191 207.376 192.29C207.236 192.639 202.456 192.743 186.125 192.813C174.541 192.883 164.875 192.883 164.7 192.813Z" fill="white"/>
<path d="M248.167 138.895C252.11 138.895 252.18 138.964 253.437 142.031C259.263 156.215 272.834 186.567 273.779 187.515C274.233 188.003 275.594 188.839 276.815 189.432C278.77 190.373 278.979 190.582 278.979 191.523V192.568L267.149 192.674C258.705 192.744 255.181 192.638 254.867 192.359C254.588 192.15 254.379 191.558 254.379 191.035C254.379 190.268 254.692 189.955 256.228 189.223C257.379 188.665 258.078 188.108 258.147 187.689C258.182 187.306 257.379 185.041 256.332 182.636L254.448 178.279L244.888 178.209L235.361 178.104L233.512 182.531C232.5 184.935 231.698 187.234 231.767 187.619C231.836 188.037 232.535 188.735 233.442 189.258C234.803 190.059 235.012 190.338 235.012 191.384V192.568L226.358 192.674L217.705 192.743L217.81 191.628C217.914 190.652 218.193 190.338 220.147 189.258C221.404 188.561 222.764 187.515 223.183 186.957C223.601 186.399 226.952 178.801 230.65 170.088C234.314 161.375 238.78 150.885 240.49 146.807C242.305 142.52 243.876 139.278 244.225 139.139C244.539 138.999 246.318 138.895 248.167 138.895ZM244.573 156.042C244.329 156.321 237.984 170.702 237.979 170.994C237.979 171.064 240.979 171.134 244.608 171.134C248.269 171.134 251.233 171.064 251.238 170.96C251.238 170.751 247.365 161.479 245.795 157.959C245.272 156.775 244.713 155.904 244.573 156.042Z" fill="white"/>
<path d="M289.761 192.255C289.377 191.21 289.831 190.443 291.296 189.746C292.099 189.362 293.146 188.7 293.565 188.282L294.332 187.48L294.437 166.429L294.577 145.342L293.565 144.436C293.041 143.913 291.82 143.007 290.843 142.415C289.552 141.613 289.063 141.09 288.993 140.393C288.889 139.557 288.993 139.452 290.389 139.243C291.227 139.139 296.914 139.069 303.056 139.139L314.222 139.243V140.289C314.222 141.23 313.978 141.439 311.779 142.554C310.279 143.286 309.162 144.123 308.918 144.645C308.569 145.308 308.464 150.222 308.464 165.069C308.464 182.601 308.534 184.657 309.023 184.866C309.337 184.971 312.791 185.075 316.699 185.075C322.352 185.075 324.097 184.971 325.144 184.518C326.679 183.89 328.145 182.601 329.261 180.823C330.134 179.464 331.111 179.15 332.192 179.847C332.646 180.126 332.611 180.684 332.088 184.309C331.739 186.574 331.32 189.397 331.111 190.582L330.727 192.743H310.349C292.902 192.743 289.936 192.673 289.761 192.255Z" fill="white"/>
<path d="M340.567 191.593C340.567 190.547 340.741 190.373 342.73 189.432C346.255 187.759 346.045 188.352 347.371 173.713C348.034 166.638 348.802 157.332 349.116 153.045L349.674 145.238L348.872 144.367C348.418 143.913 347.162 143.077 346.08 142.519C344.126 141.509 343.289 140.393 343.882 139.452C344.022 139.208 347.197 139.069 353.269 139.069C361.573 139.069 362.481 139.138 362.969 139.696C363.248 140.01 366.947 147.782 371.134 156.914C375.322 166.08 378.881 173.574 378.985 173.574C379.09 173.574 382.754 165.976 387.151 156.705C391.512 147.399 395.246 139.661 395.456 139.452C395.979 138.929 414.054 138.929 414.368 139.452C414.961 140.393 414.159 141.369 411.612 142.659C408.331 144.332 408.122 144.82 408.401 149.595C409.274 162.734 410.634 180.893 411.053 184.309C411.402 187.376 411.856 187.968 414.752 189.258C417.195 190.373 417.474 190.687 417.195 191.907L416.985 192.743L404.842 192.673L392.734 192.569V191.349C392.734 190.268 392.908 190.059 394.164 189.432C396.712 188.177 396.747 188.142 396.747 184.413C396.747 182.566 396.502 178.244 396.223 174.794C395.944 171.343 395.525 165.906 395.281 162.699C395.037 159.458 394.793 156.844 394.653 156.844C394.548 156.844 390.71 164.895 386.069 174.724L377.694 192.569L375.391 192.673C373.263 192.778 373.019 192.708 372.495 191.941C371.972 191.105 365.342 176.885 359.41 163.85C357.037 158.656 356.269 157.262 356.165 157.924C355.99 158.691 354.874 174.166 354.28 183.228C354.036 187.515 354.28 188.038 357.107 189.362C358.921 190.234 359.061 190.373 359.061 191.523V192.743H340.567V191.593Z" fill="white"/>
<path d="M276.85 124.535L270.604 117.32L270.325 119.237C270.185 120.318 270.185 122.897 270.325 124.988C270.604 128.613 270.639 128.787 271.407 128.892C272.07 128.996 272.209 129.205 272.105 129.937L272 130.878H268.685C265.51 130.878 265.37 130.843 265.265 130.112C265.196 129.554 265.405 129.205 266.033 128.892L266.94 128.508V112.894L265.719 112.371C264.777 111.988 264.498 111.674 264.498 111.012C264.498 110.141 264.533 110.141 267.603 110.141H270.709L276.222 116.484C279.258 119.934 281.805 122.583 281.875 122.374C281.945 122.13 281.91 119.83 281.77 117.251C281.526 112.615 281.526 112.58 280.689 112.58C279.956 112.58 279.851 112.406 279.851 111.36V110.106L283.201 110.21C286.376 110.315 286.586 110.35 286.865 111.116C287.144 111.848 287.039 111.988 286.132 112.336L285.085 112.72L285.016 122.165L284.911 131.575L284.004 131.68C283.201 131.785 282.294 130.878 276.85 124.535Z" fill="white"/>
<path d="M252.913 110.872C259.089 125.614 260.485 128.612 261.183 128.612C262.264 128.612 262.823 129.136 262.684 130.042C262.579 130.878 262.543 130.878 257.414 130.982C252.879 131.052 252.251 131.018 252.041 130.495C251.727 129.659 252.39 128.787 253.472 128.683C254.553 128.543 254.588 128.438 253.681 126.382L252.948 124.779H245.795L245.201 126.452C244.434 128.543 244.434 128.543 245.585 128.683C246.353 128.752 246.527 128.961 246.527 129.798V130.809L243.038 130.948C241.12 131.018 239.411 130.983 239.27 130.844C239.13 130.704 239.025 130.251 239.025 129.833C239.025 129.275 239.304 128.961 240.106 128.752C241.153 128.438 241.363 128.055 244.817 119.411C246.806 114.427 248.551 110.245 248.726 110.07C248.866 109.931 249.738 109.688 250.645 109.583L252.285 109.339L252.913 110.872ZM249.772 116.274C249.389 115.299 249.354 115.369 248.272 118.227C247.679 119.83 247.051 121.328 246.911 121.572C246.737 121.886 247.33 121.99 249.284 121.99H251.936L251.028 119.655C250.54 118.331 249.947 116.832 249.772 116.274Z" fill="white"/>
<path d="M290.808 110.28C291.263 110.175 294.508 110.141 298.031 110.21C303.858 110.315 304.626 110.385 306.196 111.117C310.034 112.894 311.744 115.787 311.779 120.597C311.779 123.141 311.64 123.839 310.802 125.546C309.721 127.777 308.36 129.067 306.022 130.147C304.626 130.774 303.649 130.878 297.228 130.983L289.97 131.123V130.216C289.97 129.554 290.215 129.205 290.842 128.961L291.715 128.613V112.65L290.842 112.441C289.621 112.127 289.622 110.593 290.808 110.28ZM297.298 128.264H299.217C300.264 128.264 301.764 128.02 302.532 127.707C304.87 126.765 306.126 124.256 306.091 120.457C306.091 117.181 304.765 114.637 302.463 113.417C301.939 113.139 300.544 112.824 299.392 112.685L297.298 112.476V128.264Z" fill="white"/>
<path d="M217.042 124.674C216.937 124.57 210.447 124.43 202.561 124.291C194.709 124.186 185.986 123.977 183.194 123.908C180.403 123.803 169.586 123.559 159.117 123.385C148.649 123.21 137.448 122.967 134.168 122.862C130.923 122.792 122.304 122.583 115.046 122.479C107.788 122.339 101.786 122.13 101.716 121.991C101.542 121.712 109.672 121.398 124.398 121.119C129.771 121.015 138.251 120.875 143.241 120.771C148.23 120.666 157.024 120.527 162.781 120.422C173.843 120.213 217.321 119.237 220.461 119.098L222.346 119.028V124.605L219.763 124.709C218.333 124.744 217.111 124.744 217.042 124.674Z" fill="white"/>
<path d="M332.541 118.854L337.531 119.028C345.801 119.342 404.319 120.596 435.828 121.119C448.39 121.328 453.136 121.572 452.717 121.991C452.542 122.13 442.284 122.444 429.896 122.653C417.509 122.862 404.737 123.106 401.457 123.21C398.212 123.315 390.745 123.454 384.883 123.559C358.119 124.012 337.043 124.43 334.914 124.57L332.541 124.744V118.854Z" fill="white"/>
<path d="M80.7452 44.0582C80.9549 43.5356 82.3176 43.5012 98.6808 43.6754C117.733 43.8497 118.291 43.8845 122.06 45.8014C124.223 46.9167 127.363 50.2279 128.515 52.6676C132.144 60.405 128.829 70.0239 121.292 73.7184L119.373 74.6598L121.885 78.0055C123.246 79.8876 127.015 84.9763 130.26 89.3678C140.658 103.483 141.81 104.703 147.393 107.875C148.753 108.641 149.869 109.512 149.87 109.792C149.87 111.151 146.695 111.5 142.193 110.664C130.05 108.433 121.92 102.926 114.278 91.8424C112.569 89.3678 109.463 84.9061 107.404 82.0133C103.462 76.472 102.903 76.0192 101.438 77.1344C100.914 77.5178 100.879 78.3193 101.158 85.9869C101.472 95.6758 101.472 95.6764 104.473 96.8961C106.392 97.6978 107.055 98.604 106.567 99.8239C106.357 100.312 104.996 100.382 93.9005 100.312L81.4777 100.208L81.3732 99.0924C81.2685 98.0817 81.4085 97.9417 83.1183 97.0006C86.363 95.2583 86.1886 96.721 86.1886 72.0114C86.1886 54.5516 86.1189 50.298 85.7003 49.3912C85.3514 48.52 84.7231 47.9971 83.2579 47.2653C81.1992 46.2545 80.3265 45.1387 80.7452 44.0582ZM105.276 50.0885C103.531 50.0537 101.786 50.1229 101.472 50.2623C100.879 50.5065 100.844 51.3447 100.844 60.5787C100.844 66.1152 100.949 70.7474 101.088 70.8951C101.472 71.2437 105.869 70.8255 108.032 70.233C110.614 69.5011 112.708 67.724 114.104 65.1451C115.15 63.1586 115.29 62.6005 115.29 60.3004C115.29 58.2441 115.116 57.3027 114.418 55.7692C112.429 51.4822 110.3 50.1582 105.276 50.0885Z" fill="white"/>
<path d="M400.689 43.5703C417.822 43.5703 419.149 43.6054 421.696 44.2676C423.197 44.651 425.186 45.4525 426.128 46.0449C428.396 47.5088 431.048 50.4715 432.234 52.9111C433.142 54.7582 433.211 55.2118 433.211 59.1152C433.211 63.2276 433.176 63.3323 431.92 65.9111C430.315 69.1525 427.942 71.5575 424.731 73.2305L422.289 74.4502L425.604 78.6328C444.866 102.96 445.668 103.867 450.938 106.446C453.659 107.805 454.322 108.293 454.322 108.886C454.322 109.304 454.147 109.826 453.903 110.07C453.415 110.558 448.669 110.559 445.459 110.105C438.969 109.164 432.792 106.516 427.14 102.264C424.837 100.521 421.766 96.9659 414.543 87.4512C406.273 76.6469 406.273 76.6116 405.017 76.751L403.9 76.8555L403.97 85.5342C404.074 95.5717 404.04 95.432 407.25 96.8262C409.239 97.6974 409.309 97.7327 409.309 99.0566V100.382H383.487V99.4404C383.487 98.1161 383.731 97.8371 385.72 96.8613C386.662 96.4082 387.639 95.6761 387.918 95.2578C388.337 94.6305 388.442 91.0057 388.477 72.7773C388.546 47.2649 388.79 49.0768 384.812 47.125C382.58 46.0449 382.44 45.9056 382.44 44.7559V43.5703H400.689ZM416.497 55.6299C414.508 51.587 411.088 49.705 406.099 49.9141L403.551 50.0186L403.446 60.2656C403.411 66.748 403.481 70.6163 403.726 70.7559C404.144 71.0347 408.401 70.6168 410.181 70.1289C416.496 68.3514 419.428 61.6246 416.497 55.6299Z" fill="white"/>
<path d="M512.072 101.741C509.176 101.462 504.988 100.695 502.546 100.033C500.836 99.5798 500.941 99.9981 500.208 90.6573C499.684 84.2443 499.684 83.8958 500.278 83.4427C500.975 82.9199 502.406 82.8153 503.069 83.2336C503.313 83.373 503.837 84.558 504.221 85.8127C506.07 91.7727 510.153 94.8049 516.224 94.8049C520.9 94.7701 523.447 92.7137 523.692 88.6707C523.796 86.928 523.692 86.1613 523.063 84.8717C522.017 82.7456 520.307 81.4212 514.34 78.2495C507.919 74.8339 506.14 73.6489 503.941 71.3486C501.673 68.9088 500.417 66.3994 499.789 62.9489C498.184 53.8173 503.279 45.5222 512.072 42.9082C514.514 42.1762 515.247 42.1065 519.888 42.2808C524.006 42.4202 525.681 42.6642 528.647 43.4658L532.31 44.4417L532.415 50.4365L532.485 56.3964L531.089 56.6404C529.205 56.9541 528.298 56.3267 527.53 54.1658C526.797 52.0746 525.157 50.3319 523.447 49.8091C521.424 49.2166 516.538 49.5303 514.898 50.4016C512.386 51.6912 511.548 54.7932 512.909 57.686C513.956 59.9863 516.503 61.9033 522.366 64.831C527.321 67.3056 530.007 69.0134 532.136 71.1046C538.801 77.6919 538.557 89.4026 531.613 96.3733C527.321 100.73 520.412 102.612 512.072 101.741Z" fill="white"/>
<path d="M339.834 100.556C336.275 99.8936 333.693 98.8828 331.146 97.2098C326.958 94.3867 324.62 90.6922 323.434 84.8369C322.771 81.6652 322.701 80.0968 322.631 65.5281C322.597 47.3346 322.771 48.4151 319.351 46.7769C317.781 46.0102 317.328 45.6268 317.258 44.9297C317.188 44.4418 317.362 43.8841 317.607 43.7098C317.851 43.5356 323.294 43.431 330.378 43.5007L342.661 43.6053V44.6509C342.661 45.5222 342.382 45.8359 341.021 46.6375C340.148 47.1603 338.927 47.9968 338.334 48.5196L337.252 49.4258L337.287 65.075C337.287 78.389 337.392 81.0378 337.88 83.0593C338.613 86.0219 339.834 88.3919 341.335 89.8209C345.941 94.2473 356.235 93.9685 360.073 89.333C362.864 85.9522 363.423 81.6652 363.144 65.1795C363.004 58.5574 362.76 52.4581 362.55 51.6216C362.027 49.4955 361.05 48.2408 358.886 47.0209C356.897 45.9056 356.549 45.4525 356.863 44.3024C357.037 43.5704 357.177 43.5704 367.854 43.5704H378.637L378.532 44.6857C378.427 45.6268 378.113 45.9753 376.403 46.9512C372.984 48.9727 373.228 47.6134 372.984 66.7479C372.809 80.759 372.67 83.8261 372.181 85.7082C370.297 92.9229 365.202 98.2206 358.154 100.207C355.257 101.044 343.568 101.253 339.834 100.556Z" fill="white"/>
<path d="M142.822 100.277C142.752 100.138 142.752 99.5799 142.892 99.0571C143.031 98.3601 143.589 97.8721 145.055 97.1053C146.451 96.3386 147.114 95.746 147.463 94.9096C147.847 94.0034 147.951 89.7164 147.951 72.2548C147.916 47.6135 148.126 49.2167 144.776 47.2301C143.066 46.2542 142.892 46.0102 142.892 44.9298V43.7448H186.858V50.0184C186.893 57.2679 186.754 57.6513 184.136 57.4421C182.741 57.3376 182.671 57.2679 182.043 55.5949C181.694 54.6539 181.031 53.4689 180.577 53.0158C179.74 52.1793 179.67 52.1793 171.365 52.005L162.956 51.8307V68.6998L169.9 68.5952C177.611 68.4907 177.856 68.421 178.902 65.9812C179.321 64.9356 179.496 64.8311 180.891 64.8311H182.427L182.671 67.7239C182.776 69.2923 182.845 72.6382 182.776 75.1128L182.671 79.6438H181.136C179.67 79.6438 179.53 79.5392 178.867 78.2496C177.751 76.1236 177.227 75.9842 169.655 75.9842H162.956L163.026 84.4535L163.13 92.8881L172.552 92.7487C177.751 92.679 182.357 92.4698 182.845 92.2956C184.032 91.8425 185.462 90.4483 186.754 88.4268C187.765 86.8584 187.94 86.7539 188.917 86.9281C189.51 87.0676 190.138 87.3115 190.313 87.4858C190.592 87.7646 189.161 97.2796 188.498 99.6148L188.254 100.416L165.608 100.486C153.185 100.521 142.926 100.451 142.822 100.277Z" fill="white"/>
<path d="M231.173 43.2217C233.442 43.2217 234.908 43.3611 235.292 43.6748C235.606 43.8843 237.385 47.5439 239.234 51.7607C241.048 55.978 244.817 64.5526 247.609 70.8262C250.366 77.0997 253.646 84.6972 254.937 87.7295C256.193 90.7614 257.588 93.689 258.007 94.2471C258.426 94.8395 259.891 95.8505 261.217 96.5127C263.485 97.6977 263.626 97.8372 263.626 98.9873V100.207L251.342 100.312C239.375 100.381 239.06 100.381 238.676 99.6846C238.013 98.4648 238.606 97.3843 240.42 96.5479C241.363 96.0948 242.201 95.5366 242.34 95.2578C242.444 94.9774 241.607 92.6425 240.526 90.0645L238.502 85.3945H218.159L217.705 86.5449C217.46 87.1377 216.588 89.2987 215.751 91.2852C214.32 94.6308 214.25 94.9449 214.739 95.6768C215.018 96.1297 215.82 96.6525 216.483 96.8965C217.495 97.2101 217.774 97.5235 217.949 98.499C218.088 99.1961 218.019 99.8934 217.809 100.103C217.424 100.486 200.467 100.73 199.874 100.347C199.699 100.242 199.595 99.6145 199.665 98.9873C199.769 97.9418 200.013 97.6973 202.107 96.582C203.363 95.885 204.724 95.0487 205.108 94.7002C206.085 93.8283 209.017 87.0664 218.507 63.96C222.938 53.2263 226.777 44.1653 227.091 43.8496C227.51 43.3268 228.243 43.2217 231.173 43.2217ZM224.579 69.4316C222.694 73.8929 221.09 77.7619 220.985 78.0059C220.846 78.3194 222.382 78.4238 228.034 78.4238H235.221L234.977 77.6572C234.593 76.3329 229.43 64.0668 228.662 62.6357L227.999 61.2764L224.579 69.4316Z" fill="white"/>
<path d="M275.036 99.0919C275.14 97.9069 275.315 97.7327 277.095 96.8265C278.281 96.1991 279.223 95.4672 279.502 94.8747C279.851 94.1428 279.991 89.0542 280.13 72.9519L280.305 51.9353H274.129C266.975 51.9353 265.963 52.249 264.079 54.8978C263.172 56.1874 262.788 56.4662 261.846 56.4662C261.253 56.4662 260.59 56.2571 260.415 56.048C260.206 55.7691 260.171 53.0506 260.276 49.147L260.485 42.6991L261.567 42.5946C262.195 42.5249 263.276 42.734 263.974 43.0128C265.894 43.8144 308.325 43.8493 309.86 43.0477C310.558 42.6991 311.361 42.5946 312.442 42.734L314.047 42.9779V55.7692H312.303C310.733 55.7692 310.523 55.6646 310.035 54.7584C309.755 54.2007 309.023 53.3643 308.395 52.9112C307.313 52.1444 306.894 52.1095 300.753 52.005L294.262 51.8656L294.367 60.3698C294.437 65.0402 294.542 74.5551 294.611 81.5607C294.716 90.8665 294.856 94.5262 295.17 95.1187C295.414 95.5718 296.565 96.3734 297.857 96.931C299.985 97.9069 300.09 98.0115 300.09 99.1617V100.382H274.931L275.036 99.0919Z" fill="white"/>
<path d="M447.587 100.138C447.448 100.033 447.343 99.4753 447.343 98.9176C447.343 98.0812 447.622 97.8023 449.437 96.8962C450.553 96.3385 451.705 95.502 451.914 95.0838C452.228 94.4913 452.333 88.6359 452.368 72.0805C452.403 50.1577 452.403 49.8789 451.67 48.903C451.286 48.3802 450.135 47.474 449.158 46.9512C447.518 46.045 447.343 45.8359 447.343 44.7554V43.5704H460.882C468.315 43.5704 477.806 43.4659 481.958 43.3264C487.855 43.1522 489.67 43.2219 490.089 43.5704C490.507 43.919 490.612 45.0343 490.612 50.1926C490.612 57.1284 490.472 57.5118 488.1 57.5118C486.913 57.5118 486.843 57.4421 486.111 55.4206C485.657 54.2356 484.994 53.0854 484.54 52.8066C483.912 52.3883 481.958 52.2141 475.503 52.0398L467.233 51.8307V68.6997L480.911 68.4906L481.819 67.4102C482.342 66.8176 483.04 65.8418 483.354 65.2144C483.877 64.2385 484.122 64.0991 485.099 64.2036C486.18 64.3082 486.25 64.4128 486.494 65.8766C486.599 66.7479 486.739 70.1287 486.739 73.405L486.774 79.3649L485.483 79.574C484.157 79.818 483.284 79.3997 483.284 78.5633C483.284 78.3193 482.9 77.6571 482.447 77.1343L481.609 76.1584L467.233 75.9492V92.7137H475.538C480.283 92.7137 484.366 92.5395 485.134 92.3304C486.774 91.8773 488.972 89.9603 490.158 87.9388C490.961 86.5795 491.17 86.4053 492.147 86.5098L493.229 86.6144L493.159 88.9496C493.159 90.2392 492.845 93.3411 492.531 95.8157L491.903 100.381H469.85C457.742 100.381 447.692 100.277 447.587 100.138Z" fill="white"/>
<path d="M257.972 11.0517C263.73 7.67089 272.349 8.71732 276.606 13.2831C278.839 15.7229 280.095 20.5323 279.467 24.3661C278.246 32.1382 271.093 36.5298 262.509 34.8222C255.844 33.5326 251.587 27.921 252.005 21.0898C252.284 16.9074 254.587 13.0383 257.972 11.0517ZM265.894 12.8993C264.079 12.8993 263.661 13.0391 262.649 13.9452C260.73 15.6182 259.857 18.0926 259.822 21.787C259.822 26.5617 261.148 29.8032 263.59 30.8837C265.091 31.5459 267.254 31.476 268.685 30.7441C271.965 29.106 273.012 21.6479 270.709 16.3153C269.628 13.7712 268.371 12.8994 265.894 12.8993Z" fill="white"/>
<path d="M283.341 33.1492C283.341 32.3128 283.515 32.0688 284.387 31.8945L285.399 31.6854L285.609 12.9343L284.562 12.6554C283.69 12.4115 283.515 12.1675 283.515 11.331V10.2854L292.064 10.4248C296.775 10.4945 300.718 10.5991 300.892 10.7036C301.032 10.7733 301.137 12.2372 301.137 13.9799V17.0818H300.194C299.427 17.0818 299.078 16.803 298.52 15.7574C297.717 14.2935 296.321 13.6313 293.739 13.6313L292.064 13.5965V21.2642H294.507C296.565 21.2642 297.019 21.1597 297.368 20.5672C297.647 20.1489 298.206 19.8701 298.764 19.8701H299.741V22.6584C299.741 25.7952 299.357 26.318 297.822 25.3072C297.263 24.9238 296.182 24.7496 294.507 24.7496H292.064V31.3369L293.32 31.5808C294.437 31.79 294.542 31.8945 294.437 32.9053L294.332 33.9857L283.341 34.1948V33.1492Z" fill="white"/>
<path d="M320.677 18.476H321.934C322.631 18.476 331.181 18.7199 340.881 18.9988C350.582 19.2776 364.818 19.661 372.495 19.8701C380.172 20.0444 389.279 20.2883 392.734 20.3929C396.188 20.4975 406.168 20.7414 414.892 20.9157C423.615 21.1248 437.224 21.4385 445.075 21.6128C452.961 21.8219 459.975 21.9613 460.708 21.9613C461.406 21.9613 461.999 22.1007 461.999 22.275C461.999 22.7281 451.845 23.0418 394.304 24.2268C379.649 24.5404 350.651 25.4466 326.714 26.3877L320.677 26.5968V18.476Z" fill="white"/>
<path d="M218.612 25.7255C214.39 25.621 201.2 25.2376 189.301 24.9588C140.17 23.6692 93.0279 22.275 92.8534 22.1008C92.1206 21.4037 94.9121 21.334 143.066 20.6021C156.605 20.393 171.051 20.149 175.169 20.0444C179.286 19.9399 187.068 19.8005 192.441 19.6959C197.815 19.5913 208.179 19.2777 215.471 18.9988C222.764 18.72 229.918 18.4412 231.348 18.4063L233.965 18.3018L234.175 26.1786L230.232 26.0741C228.068 26.0392 222.834 25.8649 218.612 25.7255Z" fill="white"/>
<path d="M450.763 121.747C451.182 121.677 451.81 121.677 452.159 121.747C452.473 121.851 452.124 121.921 451.356 121.886C450.588 121.886 450.309 121.816 450.763 121.747Z" fill="white"/>
<path d="M74.9014 36.2806L76.1535 55.2777H70.1015C68.9329 46.9273 61.5452 42.0563 57.9975 40.6646C40.8015 35.9883 31.9113 48.4583 29.6157 55.2777C26.8331 65.4374 24.8576 87.719 39.2154 95.5684C57.1627 105.38 71.5623 92.2282 73.4406 89.5143C74.9431 87.3432 76.71 87.7747 77.4057 88.2618C79.4091 90.4329 78.2404 97.2384 77.4057 100.37C67.5972 108.929 49.0238 112.06 28.3635 104.336C11.8353 98.157 8.39887 77.8238 8.74668 68.4296C8.60756 61.123 12.5866 44.3387 29.6157 35.6543C46.6448 26.9699 66.9016 32.4533 74.9014 36.2806Z" fill="white"/>
</svg>
